<svg width="320" height="260" viewBox="0 0 320 260" fill="none" xmlns="http://www.w3.org/2000/svg">
<g clip-path="url(#clip0_416_1047)">
<path opacity="0.1" d="M160 260C248.366 260 320 250.148 320 237.995C320 225.842 248.366 215.99 160 215.99C71.6344 215.99 0 225.842 0 237.995C0 250.148 71.6344 260 160 260Z" fill="#43B7FF"/>
<path d="M273.771 248.781C273.771 248.781 282.115 236.766 281.441 224.846C281.129 219.848 282.259 214.871 284.661 210.661C285.815 208.673 287.127 206.809 288.582 205.091" stroke="#535461" stroke-width="2" stroke-miterlimit="10"/>
<path d="M288.196 197.576C287.608 199.245 288.572 205.289 288.572 205.289C288.572 205.289 292.948 201.656 293.536 199.987C293.818 199.186 293.808 198.291 293.506 197.499C293.205 196.707 292.639 196.082 291.931 195.763C291.223 195.443 290.432 195.455 289.732 195.795C289.031 196.135 288.479 196.776 288.196 197.576Z" fill="#43B7FF"/>
<path d="M280.523 204.826C280.831 206.589 284.543 211.069 284.543 211.069C284.543 211.069 286.471 205.328 286.164 203.566C286.091 203.147 285.945 202.748 285.736 202.393C285.527 202.037 285.258 201.732 284.944 201.494C284.63 201.256 284.278 201.091 283.908 201.007C283.538 200.923 283.157 200.922 282.787 201.005C282.416 201.088 282.064 201.252 281.75 201.489C281.436 201.726 281.166 202.03 280.955 202.385C280.745 202.74 280.599 203.138 280.525 203.557C280.451 203.976 280.45 204.407 280.523 204.826Z" fill="#43B7FF"/>
<path d="M275.147 220.707C276.198 222.053 281.402 223.8 281.402 223.8C281.402 223.8 280.505 217.743 279.453 216.397C279.203 216.077 278.9 215.816 278.561 215.629C278.221 215.441 277.853 215.331 277.476 215.305C277.099 215.279 276.721 215.337 276.364 215.476C276.007 215.615 275.678 215.832 275.395 216.115C275.112 216.398 274.881 216.741 274.716 217.125C274.55 217.509 274.453 217.926 274.43 218.353C274.407 218.779 274.458 219.207 274.581 219.611C274.704 220.015 274.896 220.387 275.147 220.707Z" fill="#43B7FF"/>
<path d="M273.47 233.759C274.306 235.287 279.174 238.004 279.174 238.004C279.174 238.004 279.195 231.863 278.359 230.335C278.16 229.972 277.9 229.656 277.594 229.406C277.288 229.157 276.941 228.978 276.573 228.88C276.205 228.782 275.824 228.767 275.452 228.835C275.079 228.904 274.722 229.055 274.401 229.28C274.08 229.505 273.801 229.799 273.58 230.146C273.36 230.493 273.202 230.886 273.115 231.302C273.029 231.718 273.016 232.149 273.077 232.57C273.138 232.992 273.271 233.396 273.47 233.759Z" fill="#43B7FF"/>
<path d="M290.036 213.924C288.568 214.609 283.216 213.589 283.216 213.589C283.216 213.589 286.376 208.595 287.843 207.91C288.548 207.581 289.34 207.582 290.044 207.913C290.748 208.245 291.306 208.879 291.597 209.676C291.888 210.474 291.887 211.369 291.594 212.166C291.301 212.962 290.741 213.595 290.036 213.924Z" fill="#43B7FF"/>
<path d="M287.903 229.16C286.322 229.317 281.484 226.532 281.484 226.532C281.484 226.532 285.82 222.836 287.402 222.68C287.778 222.642 288.157 222.689 288.517 222.817C288.878 222.945 289.212 223.152 289.502 223.427C289.791 223.701 290.03 224.038 290.205 224.417C290.379 224.796 290.486 225.21 290.519 225.636C290.552 226.062 290.511 226.491 290.397 226.898C290.283 227.306 290.1 227.684 289.857 228.011C289.614 228.339 289.316 228.609 288.981 228.806C288.646 229.003 288.28 229.123 287.903 229.16Z" fill="#43B7FF"/>
<path d="M284.036 243.648C282.5 244.104 277.316 242.284 277.316 242.284C277.316 242.284 281.038 237.813 282.573 237.356C283.311 237.137 284.095 237.258 284.753 237.692C285.412 238.127 285.891 238.84 286.085 239.674C286.279 240.509 286.172 241.396 285.788 242.141C285.403 242.886 284.773 243.428 284.036 243.648Z" fill="#43B7FF"/>
<path opacity="0.25" d="M288.196 197.576C287.608 199.245 288.572 205.289 288.572 205.289C288.572 205.289 292.948 201.656 293.536 199.987C293.818 199.186 293.808 198.291 293.506 197.499C293.205 196.707 292.639 196.082 291.931 195.763C291.223 195.443 290.432 195.455 289.732 195.795C289.031 196.135 288.479 196.776 288.196 197.576Z" fill="black"/>
<path opacity="0.25" d="M280.523 204.826C280.831 206.589 284.543 211.069 284.543 211.069C284.543 211.069 286.471 205.328 286.164 203.566C286.091 203.147 285.945 202.748 285.736 202.393C285.527 202.037 285.258 201.732 284.944 201.494C284.63 201.256 284.278 201.091 283.908 201.007C283.538 200.923 283.157 200.922 282.787 201.005C282.416 201.088 282.064 201.252 281.75 201.489C281.436 201.726 281.166 202.03 280.955 202.385C280.745 202.74 280.599 203.138 280.525 203.557C280.451 203.976 280.45 204.407 280.523 204.826Z" fill="black"/>
<path opacity="0.25" d="M275.147 220.707C276.198 222.053 281.402 223.8 281.402 223.8C281.402 223.8 280.505 217.743 279.453 216.397C279.203 216.077 278.9 215.816 278.561 215.629C278.221 215.441 277.853 215.331 277.476 215.305C277.099 215.279 276.721 215.337 276.364 215.476C276.007 215.615 275.678 215.832 275.395 216.115C275.112 216.398 274.881 216.741 274.716 217.125C274.55 217.509 274.453 217.926 274.43 218.353C274.407 218.779 274.458 219.207 274.581 219.611C274.704 220.015 274.896 220.387 275.147 220.707Z" fill="black"/>
<path opacity="0.25" d="M273.47 233.759C274.306 235.287 279.174 238.004 279.174 238.004C279.174 238.004 279.195 231.863 278.359 230.335C278.16 229.972 277.9 229.656 277.594 229.406C277.288 229.157 276.941 228.978 276.573 228.88C276.205 228.782 275.824 228.767 275.452 228.835C275.079 228.904 274.722 229.055 274.401 229.28C274.08 229.505 273.801 229.799 273.58 230.146C273.36 230.493 273.202 230.886 273.115 231.302C273.029 231.718 273.016 232.149 273.077 232.57C273.138 232.992 273.271 233.396 273.47 233.759Z" fill="black"/>
<path opacity="0.25" d="M290.036 213.924C288.568 214.609 283.216 213.589 283.216 213.589C283.216 213.589 286.376 208.595 287.843 207.91C288.548 207.581 289.34 207.582 290.044 207.913C290.748 208.245 291.306 208.879 291.597 209.676C291.888 210.474 291.887 211.369 291.594 212.166C291.301 212.962 290.741 213.595 290.036 213.924Z" fill="black"/>
<path opacity="0.25" d="M287.903 229.16C286.322 229.317 281.484 226.532 281.484 226.532C281.484 226.532 285.82 222.836 287.402 222.68C287.778 222.642 288.157 222.689 288.517 222.817C288.878 222.945 289.212 223.152 289.502 223.427C289.791 223.701 290.03 224.038 290.205 224.417C290.379 224.796 290.486 225.21 290.519 225.636C290.552 226.062 290.511 226.491 290.397 226.898C290.283 227.306 290.1 227.684 289.857 228.011C289.614 228.339 289.316 228.609 288.981 228.806C288.646 229.003 288.28 229.123 287.903 229.16Z" fill="black"/>
<path opacity="0.25" d="M284.036 243.648C282.5 244.104 277.316 242.284 277.316 242.284C277.316 242.284 281.038 237.813 282.573 237.356C283.311 237.137 284.095 237.258 284.753 237.692C285.412 238.127 285.891 238.84 286.085 239.674C286.279 240.509 286.172 241.396 285.788 242.141C285.403 242.886 284.773 243.428 284.036 243.648Z" fill="black"/>
<path d="M273.842 248.281C273.842 248.281 285.774 241.123 289.426 229.916C290.931 225.204 293.747 221.172 297.45 218.424C299.217 217.136 301.084 216.033 303.029 215.13" stroke="#535461" stroke-width="2" stroke-miterlimit="10"/>
<path d="M305.368 208.083C304.233 209.338 302.949 215.306 302.949 215.306C302.949 215.306 308.251 213.991 309.387 212.735C309.932 212.132 310.243 211.309 310.252 210.446C310.261 209.584 309.966 208.752 309.433 208.135C308.9 207.519 308.173 207.166 307.41 207.156C306.648 207.147 305.913 207.48 305.368 208.083Z" fill="#43B7FF"/>
<path d="M295.756 211.193C295.406 212.945 297.195 218.744 297.195 218.744C297.195 218.744 301.014 214.379 301.364 212.627C301.448 212.21 301.458 211.779 301.393 211.358C301.329 210.937 301.193 210.535 300.991 210.174C300.79 209.812 300.527 209.5 300.219 209.253C299.911 209.007 299.562 208.831 299.194 208.737C298.826 208.643 298.445 208.632 298.073 208.704C297.701 208.777 297.345 208.931 297.026 209.16C296.706 209.388 296.43 209.684 296.212 210.033C295.994 210.382 295.84 210.776 295.756 211.193Z" fill="#43B7FF"/>
<path d="M285.154 223.246C285.633 224.959 289.765 228.942 289.765 228.942C289.765 228.942 291.114 222.993 290.635 221.281C290.521 220.874 290.337 220.496 290.094 220.169C289.851 219.842 289.553 219.573 289.218 219.376C288.883 219.179 288.517 219.059 288.141 219.023C287.765 218.986 287.386 219.034 287.026 219.163C286.666 219.292 286.332 219.5 286.043 219.775C285.754 220.05 285.516 220.387 285.342 220.766C285.169 221.145 285.062 221.559 285.03 221.985C284.998 222.41 285.04 222.839 285.154 223.246Z" fill="#43B7FF"/>
<path d="M278.947 234.41C279.164 236.19 282.641 240.906 282.641 240.906C282.641 240.906 284.859 235.301 284.642 233.521C284.591 233.098 284.466 232.69 284.275 232.322C284.085 231.953 283.832 231.631 283.531 231.373C283.23 231.115 282.887 230.927 282.522 230.819C282.156 230.711 281.776 230.685 281.402 230.743C281.028 230.802 280.668 230.943 280.342 231.159C280.016 231.375 279.731 231.661 279.503 232.002C279.275 232.342 279.109 232.73 279.013 233.143C278.918 233.557 278.895 233.987 278.947 234.41Z" fill="#43B7FF"/>
<path d="M301.195 223.871C299.608 223.824 295.08 220.438 295.08 220.438C295.08 220.438 299.757 217.321 301.344 217.368C302.107 217.39 302.83 217.754 303.355 218.38C303.88 219.005 304.163 219.841 304.144 220.704C304.124 221.566 303.802 222.384 303.249 222.978C302.696 223.572 301.957 223.893 301.195 223.871Z" fill="#43B7FF"/>
<path d="M293.789 236.823C292.287 236.241 288.862 231.477 288.862 231.477C288.862 231.477 294.149 230.086 295.651 230.668C296.373 230.948 296.966 231.54 297.302 232.314C297.637 233.089 297.687 233.983 297.44 234.799C297.193 235.615 296.67 236.287 295.985 236.667C295.301 237.046 294.511 237.102 293.789 236.823Z" fill="#43B7FF"/>
<path d="M285.064 248.294C283.496 248.008 279.409 243.967 279.409 243.967C279.409 243.967 284.413 241.586 285.98 241.872C286.733 242.009 287.406 242.48 287.853 243.179C288.299 243.878 288.481 244.75 288.36 245.601C288.238 246.453 287.823 247.215 287.205 247.72C286.587 248.225 285.817 248.432 285.064 248.294Z" fill="#43B7FF"/>
<path opacity="0.1" d="M182.366 30.7917C166.555 30.1706 151.497 24.3955 137.118 18.0771C122.739 11.7587 108.496 4.7585 93.0648 1.4105C83.1395 -0.742878 71.789 -1.04755 63.7917 4.97365C56.0958 10.7679 53.6091 20.7699 52.2722 30.0504C51.2663 37.0328 50.6749 44.3816 53.431 50.9183C55.3445 55.4565 58.742 59.2713 61.0915 63.6181C69.2668 78.7437 63.4884 97.3952 54.6288 112.164C50.473 119.092 45.6525 125.701 42.4456 133.076C39.2387 140.45 37.7552 148.901 40.5609 156.423C43.342 163.88 49.9694 169.481 57.1485 173.42C71.7295 181.421 88.9116 183.711 105.666 185.008C142.755 187.879 180.042 186.636 217.23 185.391C230.992 184.93 244.814 184.463 258.353 182.056C265.871 180.718 273.633 178.596 279.091 173.473C286.02 166.969 287.738 155.956 283.095 147.8C275.307 134.121 253.774 130.723 248.33 116.043C245.334 107.962 248.411 98.9607 252.765 91.4664C262.106 75.3893 277.763 61.2849 278.588 42.9086C279.154 30.2875 271.628 17.6477 259.99 11.6762C247.791 5.41679 230.876 6.20416 221.877 16.5656C212.61 27.2349 196.325 31.3401 182.366 30.7917Z" fill="#43B7FF"/>
<path d="M155.295 228.126C161.232 228.126 166.044 222.345 166.044 215.215C166.044 208.085 161.232 202.304 155.295 202.304C149.358 202.304 144.545 208.085 144.545 215.215C144.545 222.345 149.358 228.126 155.295 228.126Z" fill="#FBD56F"/>
<path opacity="0.1" d="M155.295 228.126C161.232 228.126 166.044 222.345 166.044 215.215C166.044 208.085 161.232 202.304 155.295 202.304C149.358 202.304 144.545 208.085 144.545 215.215C144.545 222.345 149.358 228.126 155.295 228.126Z" fill="black"/>
<path d="M157.15 228.126C163.087 228.126 167.9 222.474 167.9 215.503C167.9 208.531 163.087 202.879 157.15 202.879C151.213 202.879 146.4 208.531 146.4 215.503C146.4 222.474 151.213 228.126 157.15 228.126Z" fill="#FBD56F"/>
<path d="M161.505 226.942L160.386 226.237C160.386 226.237 159.863 228.707 160.034 230.467C160.051 230.645 160.116 230.813 160.22 230.949C160.324 231.084 160.463 231.18 160.617 231.224C163.189 231.947 175.449 235.026 183.88 230.689C184.002 230.626 184.107 230.528 184.186 230.404C184.265 230.281 184.313 230.137 184.328 229.985C184.431 228.904 184.065 226.672 183.919 226.237C183.604 225.301 161.505 226.942 161.505 226.942Z" fill="#FBD56F"/>
<path opacity="0.1" d="M161.505 226.942L160.386 226.237C160.386 226.237 159.863 228.707 160.034 230.467C160.051 230.645 160.116 230.813 160.22 230.949C160.324 231.084 160.463 231.18 160.617 231.224C163.189 231.947 175.449 235.026 183.88 230.689C184.002 230.626 184.107 230.528 184.186 230.404C184.265 230.281 184.313 230.137 184.328 229.985C184.431 228.904 184.065 226.672 183.919 226.237C183.604 225.301 161.505 226.942 161.505 226.942Z" fill="black"/>
<path d="M172.153 229.238C178.651 229.238 183.919 227.895 183.919 226.237C183.919 224.58 178.651 223.236 172.153 223.236C165.655 223.236 160.387 224.58 160.387 226.237C160.387 227.895 165.655 229.238 172.153 229.238Z" fill="#FBD56F"/>
<path d="M166.001 222.514L164.882 221.81C164.882 221.81 164.359 224.28 164.53 226.039C164.547 226.218 164.612 226.386 164.716 226.522C164.82 226.657 164.959 226.753 165.113 226.797C167.685 227.519 179.945 230.599 188.376 226.262C188.498 226.198 188.604 226.1 188.682 225.977C188.761 225.854 188.81 225.709 188.824 225.558C188.927 224.477 188.561 222.245 188.415 221.81C188.101 220.874 166.001 222.514 166.001 222.514Z" fill="#FBD56F"/>
<path opacity="0.1" d="M166.001 222.514L164.882 221.81C164.882 221.81 164.359 224.28 164.53 226.039C164.547 226.218 164.612 226.386 164.716 226.522C164.82 226.657 164.959 226.753 165.113 226.797C167.685 227.519 179.945 230.599 188.376 226.262C188.498 226.198 188.604 226.1 188.682 225.977C188.761 225.854 188.81 225.709 188.824 225.558C188.927 224.477 188.561 222.245 188.415 221.81C188.101 220.874 166.001 222.514 166.001 222.514Z" fill="black"/>
<path d="M176.647 224.811C183.145 224.811 188.413 223.467 188.413 221.81C188.413 220.152 183.145 218.809 176.647 218.809C170.149 218.809 164.881 220.152 164.881 221.81C164.881 223.467 170.149 224.811 176.647 224.811Z" fill="#FBD56F"/>
<path d="M169.973 216.695L168.855 215.991C168.855 215.991 168.332 218.46 168.503 220.22C168.52 220.398 168.585 220.567 168.689 220.702C168.793 220.838 168.931 220.934 169.085 220.977C171.658 221.7 183.918 224.78 192.348 220.442C192.471 220.379 192.576 220.281 192.655 220.158C192.733 220.034 192.782 219.89 192.796 219.739C192.9 218.657 192.534 216.425 192.388 215.991C192.073 215.055 169.973 216.695 169.973 216.695Z" fill="#FBD56F"/>
<path opacity="0.1" d="M169.973 216.695L168.855 215.991C168.855 215.991 168.332 218.46 168.503 220.22C168.52 220.398 168.585 220.567 168.689 220.702C168.793 220.838 168.931 220.934 169.085 220.977C171.658 221.7 183.918 224.78 192.348 220.442C192.471 220.379 192.576 220.281 192.655 220.158C192.733 220.034 192.782 219.89 192.796 219.739C192.9 218.657 192.534 216.425 192.388 215.991C192.073 215.055 169.973 216.695 169.973 216.695Z" fill="black"/>
<path d="M180.622 218.991C187.12 218.991 192.388 217.648 192.388 215.99C192.388 214.333 187.12 212.989 180.622 212.989C174.123 212.989 168.855 214.333 168.855 215.99C168.855 217.648 174.123 218.991 180.622 218.991Z" fill="#FBD56F"/>
<path d="M165.573 210.637L164.455 209.933C164.455 209.933 163.932 212.402 164.103 214.162C164.12 214.34 164.184 214.509 164.289 214.644C164.393 214.78 164.531 214.876 164.685 214.919C167.257 215.642 179.517 218.721 187.948 214.384C188.07 214.321 188.176 214.223 188.254 214.1C188.333 213.976 188.382 213.832 188.396 213.681C188.499 212.599 188.133 210.367 187.987 209.933C187.673 208.997 165.573 210.637 165.573 210.637Z" fill="#FBD56F"/>
<path opacity="0.1" d="M165.573 210.637L164.455 209.933C164.455 209.933 163.932 212.402 164.103 214.162C164.12 214.34 164.184 214.509 164.289 214.644C164.393 214.78 164.531 214.876 164.685 214.919C167.257 215.642 179.517 218.721 187.948 214.384C188.07 214.321 188.176 214.223 188.254 214.1C188.333 213.976 188.382 213.832 188.396 213.681C188.499 212.599 188.133 210.367 187.987 209.933C187.673 208.997 165.573 210.637 165.573 210.637Z" fill="black"/>
<path d="M176.221 212.934C182.72 212.934 187.988 211.59 187.988 209.933C187.988 208.275 182.72 206.932 176.221 206.932C169.723 206.932 164.455 208.275 164.455 209.933C164.455 211.59 169.723 212.934 176.221 212.934Z" fill="#FBD56F"/>
<path d="M175.474 205.776L174.356 205.071C174.356 205.071 173.833 207.541 174.004 209.301C174.021 209.479 174.086 209.647 174.19 209.783C174.294 209.918 174.432 210.014 174.586 210.058C177.159 210.781 189.419 213.86 197.849 209.523C197.972 209.46 198.077 209.362 198.156 209.238C198.234 209.115 198.283 208.971 198.297 208.819C198.401 207.738 198.035 205.506 197.889 205.071C197.574 204.135 175.474 205.776 175.474 205.776Z" fill="#FBD56F"/>
<path opacity="0.1" d="M175.474 205.776L174.356 205.071C174.356 205.071 173.833 207.541 174.004 209.301C174.021 209.479 174.086 209.647 174.19 209.783C174.294 209.918 174.432 210.014 174.586 210.058C177.159 210.781 189.419 213.86 197.849 209.523C197.972 209.46 198.077 209.362 198.156 209.238C198.234 209.115 198.283 208.971 198.297 208.819C198.401 207.738 198.035 205.506 197.889 205.071C197.574 204.135 175.474 205.776 175.474 205.776Z" fill="black"/>
<path d="M186.122 208.072C192.62 208.072 197.888 206.728 197.888 205.071C197.888 203.413 192.62 202.07 186.122 202.07C179.623 202.07 174.355 203.413 174.355 205.071C174.355 206.728 179.623 208.072 186.122 208.072Z" fill="#FBD56F"/>
<path d="M168.784 202.508L167.666 201.804C167.666 201.804 167.143 204.273 167.314 206.033C167.33 206.211 167.395 206.38 167.499 206.515C167.604 206.651 167.742 206.747 167.896 206.79C170.468 207.513 182.728 210.593 191.159 206.255C191.281 206.192 191.387 206.094 191.465 205.971C191.544 205.847 191.593 205.703 191.607 205.552C191.71 204.47 191.344 202.238 191.198 201.804C190.884 200.868 168.784 202.508 168.784 202.508Z" fill="#FBD56F"/>
<path opacity="0.1" d="M168.784 202.508L167.666 201.804C167.666 201.804 167.143 204.273 167.314 206.033C167.33 206.211 167.395 206.38 167.499 206.515C167.604 206.651 167.742 206.747 167.896 206.79C170.468 207.513 182.728 210.593 191.159 206.255C191.281 206.192 191.387 206.094 191.465 205.971C191.544 205.847 191.593 205.703 191.607 205.552C191.71 204.47 191.344 202.238 191.198 201.804C190.884 200.868 168.784 202.508 168.784 202.508Z" fill="black"/>
<path d="M179.432 204.804C185.931 204.804 191.199 203.461 191.199 201.803C191.199 200.146 185.931 198.802 179.432 198.802C172.934 198.802 167.666 200.146 167.666 201.803C167.666 203.461 172.934 204.804 179.432 204.804Z" fill="#FBD56F"/>
<path d="M173.251 196.2L172.132 195.495C172.132 195.495 171.609 197.965 171.78 199.724C171.797 199.903 171.862 200.071 171.966 200.207C172.07 200.342 172.209 200.438 172.363 200.482C174.935 201.205 187.195 204.284 195.626 199.947C195.748 199.883 195.854 199.785 195.932 199.662C196.011 199.539 196.06 199.394 196.074 199.243C196.177 198.162 195.811 195.93 195.665 195.495C195.351 194.559 173.251 196.2 173.251 196.2Z" fill="#FBD56F"/>
<path opacity="0.1" d="M173.251 196.2L172.132 195.495C172.132 195.495 171.609 197.965 171.78 199.724C171.797 199.903 171.862 200.071 171.966 200.207C172.07 200.342 172.209 200.438 172.363 200.482C174.935 201.205 187.195 204.284 195.626 199.947C195.748 199.883 195.854 199.785 195.932 199.662C196.011 199.539 196.06 199.394 196.074 199.243C196.177 198.162 195.811 195.93 195.665 195.495C195.351 194.559 173.251 196.2 173.251 196.2Z" fill="black"/>
<path d="M183.899 198.496C190.397 198.496 195.665 197.153 195.665 195.495C195.665 193.838 190.397 192.494 183.899 192.494C177.401 192.494 172.133 193.838 172.133 195.495C172.133 197.153 177.401 198.496 183.899 198.496Z" fill="#FBD56F"/>
<path d="M175.454 188.712L174.336 188.008C174.336 188.008 173.813 190.477 173.984 192.237C174 192.416 174.065 192.584 174.169 192.719C174.274 192.855 174.412 192.951 174.566 192.994C177.138 193.717 189.398 196.797 197.829 192.459C197.951 192.396 198.057 192.298 198.135 192.175C198.214 192.051 198.263 191.907 198.277 191.756C198.38 190.674 198.014 188.443 197.868 188.008C197.554 187.072 175.454 188.712 175.454 188.712Z" fill="#FBD56F"/>
<path opacity="0.1" d="M175.454 188.712L174.336 188.008C174.336 188.008 173.813 190.477 173.984 192.237C174 192.416 174.065 192.584 174.169 192.719C174.274 192.855 174.412 192.951 174.566 192.994C177.138 193.717 189.398 196.797 197.829 192.459C197.951 192.396 198.057 192.298 198.135 192.175C198.214 192.051 198.263 191.907 198.277 191.756C198.38 190.674 198.014 188.443 197.868 188.008C197.554 187.072 175.454 188.712 175.454 188.712Z" fill="black"/>
<path d="M186.101 191.009C192.6 191.009 197.867 189.665 197.867 188.008C197.867 186.35 192.6 185.007 186.101 185.007C179.603 185.007 174.335 186.35 174.335 188.008C174.335 189.665 179.603 191.009 186.101 191.009Z" fill="#FBD56F"/>
<path d="M195.316 228.679L194.198 227.974C194.198 227.974 193.675 230.444 193.846 232.203C193.863 232.382 193.928 232.55 194.032 232.686C194.136 232.821 194.274 232.917 194.428 232.961C197 233.684 209.26 236.763 217.691 232.426C217.813 232.362 217.919 232.264 217.998 232.141C218.076 232.018 218.125 231.873 218.139 231.722C218.243 230.641 217.877 228.409 217.73 227.974C217.416 227.038 195.316 228.679 195.316 228.679Z" fill="#FBD56F"/>
<path opacity="0.1" d="M195.316 228.679L194.198 227.974C194.198 227.974 193.675 230.444 193.846 232.203C193.863 232.382 193.928 232.55 194.032 232.686C194.136 232.821 194.274 232.917 194.428 232.961C197 233.684 209.26 236.763 217.691 232.426C217.813 232.362 217.919 232.264 217.998 232.141C218.076 232.018 218.125 231.873 218.139 231.722C218.243 230.641 217.877 228.409 217.73 227.974C217.416 227.038 195.316 228.679 195.316 228.679Z" fill="black"/>
<path d="M205.964 230.975C212.463 230.975 217.731 229.632 217.731 227.974C217.731 226.317 212.463 224.973 205.964 224.973C199.466 224.973 194.198 226.317 194.198 227.974C194.198 229.632 199.466 230.975 205.964 230.975Z" fill="#FBD56F"/>
<path d="M199.29 222.859L198.172 222.155C198.172 222.155 197.649 224.624 197.819 226.384C197.836 226.563 197.901 226.731 198.005 226.866C198.109 227.002 198.248 227.098 198.402 227.141C200.974 227.864 213.234 230.944 221.665 226.606C221.787 226.543 221.893 226.445 221.971 226.322C222.05 226.198 222.099 226.054 222.113 225.903C222.216 224.821 221.85 222.59 221.704 222.155C221.39 221.219 199.29 222.859 199.29 222.859Z" fill="#FBD56F"/>
<path opacity="0.1" d="M199.29 222.859L198.172 222.155C198.172 222.155 197.649 224.624 197.819 226.384C197.836 226.563 197.901 226.731 198.005 226.866C198.109 227.002 198.248 227.098 198.402 227.141C200.974 227.864 213.234 230.944 221.665 226.606C221.787 226.543 221.893 226.445 221.971 226.322C222.05 226.198 222.099 226.054 222.113 225.903C222.216 224.821 221.85 222.59 221.704 222.155C221.39 221.219 199.29 222.859 199.29 222.859Z" fill="black"/>
<path d="M209.938 225.156C216.436 225.156 221.704 223.812 221.704 222.155C221.704 220.497 216.436 219.154 209.938 219.154C203.44 219.154 198.172 220.497 198.172 222.155C198.172 223.812 203.44 225.156 209.938 225.156Z" fill="#FBD56F"/>
<path d="M194.889 216.801L193.771 216.097C193.771 216.097 193.248 218.566 193.419 220.326C193.436 220.504 193.501 220.673 193.605 220.808C193.709 220.944 193.847 221.04 194.001 221.083C196.574 221.806 208.834 224.886 217.264 220.548C217.387 220.485 217.492 220.387 217.571 220.264C217.649 220.14 217.698 219.996 217.712 219.845C217.816 218.763 217.45 216.531 217.304 216.097C216.989 215.161 194.889 216.801 194.889 216.801Z" fill="#FBD56F"/>
<path opacity="0.1" d="M194.889 216.801L193.771 216.097C193.771 216.097 193.248 218.566 193.419 220.326C193.436 220.504 193.501 220.673 193.605 220.808C193.709 220.944 193.847 221.04 194.001 221.083C196.574 221.806 208.834 224.886 217.264 220.548C217.387 220.485 217.492 220.387 217.571 220.264C217.649 220.14 217.698 219.996 217.712 219.845C217.816 218.763 217.45 216.531 217.304 216.097C216.989 215.161 194.889 216.801 194.889 216.801Z" fill="black"/>
<path d="M205.537 219.098C212.035 219.098 217.303 217.754 217.303 216.097C217.303 214.439 212.035 213.096 205.537 213.096C199.038 213.096 193.771 214.439 193.771 216.097C193.771 217.754 199.038 219.098 205.537 219.098Z" fill="#FBD56F"/>
<path d="M204.79 211.94L203.672 211.235C203.672 211.235 203.149 213.705 203.319 215.465C203.336 215.643 203.401 215.811 203.505 215.947C203.609 216.082 203.748 216.178 203.902 216.222C206.474 216.945 218.734 220.024 227.165 215.687C227.287 215.624 227.393 215.526 227.471 215.402C227.55 215.279 227.599 215.135 227.613 214.983C227.716 213.902 227.35 211.67 227.204 211.235C226.89 210.299 204.79 211.94 204.79 211.94Z" fill="#FBD56F"/>
<path opacity="0.1" d="M204.79 211.94L203.672 211.235C203.672 211.235 203.149 213.705 203.319 215.465C203.336 215.643 203.401 215.811 203.505 215.947C203.609 216.082 203.748 216.178 203.902 216.222C206.474 216.945 218.734 220.024 227.165 215.687C227.287 215.624 227.393 215.526 227.471 215.402C227.55 215.279 227.599 215.135 227.613 214.983C227.716 213.902 227.35 211.67 227.204 211.235C226.89 210.299 204.79 211.94 204.79 211.94Z" fill="black"/>
<path d="M215.438 214.236C221.936 214.236 227.204 212.893 227.204 211.235C227.204 209.578 221.936 208.234 215.438 208.234C208.94 208.234 203.672 209.578 203.672 211.235C203.672 212.893 208.94 214.236 215.438 214.236Z" fill="#FBD56F"/>
<path d="M198.1 208.672L196.982 207.968C196.982 207.968 196.459 210.437 196.63 212.197C196.647 212.376 196.712 212.544 196.816 212.679C196.92 212.815 197.058 212.911 197.212 212.954C199.785 213.677 212.045 216.757 220.475 212.419C220.598 212.356 220.703 212.258 220.782 212.135C220.86 212.011 220.909 211.867 220.923 211.716C221.027 210.634 220.661 208.403 220.515 207.968C220.2 207.032 198.1 208.672 198.1 208.672Z" fill="#FBD56F"/>
<path opacity="0.1" d="M198.1 208.672L196.982 207.968C196.982 207.968 196.459 210.437 196.63 212.197C196.647 212.376 196.712 212.544 196.816 212.679C196.92 212.815 197.058 212.911 197.212 212.954C199.785 213.677 212.045 216.757 220.475 212.419C220.598 212.356 220.703 212.258 220.782 212.135C220.86 212.011 220.909 211.867 220.923 211.716C221.027 210.634 220.661 208.403 220.515 207.968C220.2 207.032 198.1 208.672 198.1 208.672Z" fill="black"/>
<path d="M208.749 210.969C215.247 210.969 220.515 209.625 220.515 207.968C220.515 206.31 215.247 204.967 208.749 204.967C202.25 204.967 196.982 206.31 196.982 207.968C196.982 209.625 202.25 210.969 208.749 210.969Z" fill="#FBD56F"/>
<path d="M202.567 202.364L201.449 201.66C201.449 201.66 200.926 204.129 201.097 205.889C201.114 206.067 201.179 206.236 201.283 206.371C201.387 206.507 201.525 206.603 201.679 206.646C204.251 207.369 216.511 210.449 224.942 206.111C225.064 206.048 225.17 205.95 225.249 205.827C225.327 205.703 225.376 205.559 225.39 205.408C225.494 204.326 225.128 202.094 224.981 201.66C224.667 200.724 202.567 202.364 202.567 202.364Z" fill="#FBD56F"/>
<path opacity="0.1" d="M202.567 202.364L201.449 201.66C201.449 201.66 200.926 204.129 201.097 205.889C201.114 206.067 201.179 206.236 201.283 206.371C201.387 206.507 201.525 206.603 201.679 206.646C204.251 207.369 216.511 210.449 224.942 206.111C225.064 206.048 225.17 205.95 225.249 205.827C225.327 205.703 225.376 205.559 225.39 205.408C225.494 204.326 225.128 202.094 224.981 201.66C224.667 200.724 202.567 202.364 202.567 202.364Z" fill="black"/>
<path d="M213.215 204.661C219.713 204.661 224.981 203.317 224.981 201.66C224.981 200.002 219.713 198.659 213.215 198.659C206.716 198.659 201.448 200.002 201.448 201.66C201.448 203.317 206.716 204.661 213.215 204.661Z" fill="#FBD56F"/>
<path d="M204.77 194.876L203.652 194.172C203.652 194.172 203.129 196.641 203.3 198.401C203.317 198.58 203.382 198.748 203.486 198.883C203.59 199.019 203.728 199.115 203.882 199.158C206.455 199.881 218.715 202.961 227.145 198.623C227.268 198.56 227.373 198.462 227.452 198.339C227.53 198.215 227.579 198.071 227.593 197.92C227.697 196.838 227.331 194.607 227.185 194.172C226.87 193.236 204.77 194.876 204.77 194.876Z" fill="#FBD56F"/>
<path opacity="0.1" d="M204.77 194.876L203.652 194.172C203.652 194.172 203.129 196.641 203.3 198.401C203.317 198.58 203.382 198.748 203.486 198.883C203.59 199.019 203.728 199.115 203.882 199.158C206.455 199.881 218.715 202.961 227.145 198.623C227.268 198.56 227.373 198.462 227.452 198.339C227.53 198.215 227.579 198.071 227.593 197.92C227.697 196.838 227.331 194.607 227.185 194.172C226.87 193.236 204.77 194.876 204.77 194.876Z" fill="black"/>
<path d="M215.418 197.173C221.916 197.173 227.184 195.829 227.184 194.172C227.184 192.514 221.916 191.171 215.418 191.171C208.919 191.171 203.651 192.514 203.651 194.172C203.651 195.829 208.919 197.173 215.418 197.173Z" fill="#FBD56F"/>
<path d="M275.69 246.341C274.052 246.276 273.993 245.557 271.888 244.316C270.699 243.616 268.894 241.582 267.548 239.946C267.441 239.815 267.336 239.687 267.235 239.562C267.591 239.553 267.793 239.549 267.793 239.549C267.793 239.549 267.267 234.324 267.734 233.083C268.202 231.842 267.851 224.462 267.851 224.462C267.851 224.462 268.144 218.846 267.617 217.539C267.091 216.233 267.793 207.873 267.793 207.873C267.793 207.873 268.261 202.91 268.378 192.787C268.495 182.664 263.23 182.337 263.23 182.337C263.23 182.337 262.529 182.276 261.463 182.161C261.36 182.15 261.252 182.138 261.143 182.126C261.834 180.492 262.236 179.268 262.236 179.268C262.236 179.268 261.359 169.798 261.125 168.165C260.891 166.533 259.487 159.806 259.487 159.806C259.487 159.806 258.492 156.932 257.907 154.907C257.323 152.883 255.568 150.532 255.568 150.532C255.568 150.532 252.409 143.478 251.532 142.433C251.125 141.949 250.554 141.337 250.059 140.821C249.97 140.728 249.884 140.64 249.801 140.554C249.934 139.818 250.004 139.07 250.011 138.319C250.011 138.319 246.735 134.661 246.501 133.747C246.267 132.833 243.167 129.437 243.167 129.437C243.167 129.437 241.412 125.779 239.423 125.714C238.484 125.654 237.541 125.686 236.606 125.811C237.015 124.1 237.498 122.308 237.932 120.77C237.98 120.599 238.027 120.432 238.074 120.267C239.664 119.051 240.911 117.344 241.668 115.349C241.709 115.243 241.747 115.136 241.784 115.029C241.805 115.029 241.826 115.033 241.847 115.033C241.93 115.032 242.012 115.023 242.093 115.008C242.748 114.881 243.302 114.044 243 113.384C243.02 113.421 243.048 113.452 243.082 113.473C243.115 113.493 243.153 113.504 243.191 113.502C243.409 113.494 243.676 113.137 243.727 112.823C243.736 112.768 243.74 112.713 243.748 112.658C243.757 112.59 243.767 112.522 243.774 112.454C243.781 112.389 243.785 112.325 243.79 112.26C243.795 112.193 243.8 112.127 243.803 112.06C243.805 111.998 243.807 111.935 243.808 111.872C243.809 111.801 243.809 111.729 243.808 111.657C243.807 111.599 243.806 111.542 243.804 111.484C243.8 111.396 243.794 111.309 243.787 111.222C243.784 111.186 243.783 111.15 243.78 111.114L243.779 111.119C243.745 110.763 243.682 110.41 243.59 110.066C243.267 108.852 242.589 107.648 242.85 106.416C242.853 106.403 242.858 106.391 242.861 106.377L242.862 106.38C243.08 105.423 243.811 104.729 244.259 103.874C244.301 103.793 244.339 103.708 244.376 103.624C244.382 103.609 244.391 103.594 244.397 103.578C244.424 103.515 244.447 103.45 244.47 103.385C244.486 103.343 244.503 103.302 244.516 103.26C244.535 103.203 244.551 103.145 244.567 103.087C244.582 103.034 244.598 102.982 244.611 102.929C244.624 102.878 244.634 102.826 244.645 102.774C244.658 102.712 244.671 102.649 244.682 102.587C244.689 102.541 244.695 102.496 244.701 102.451C244.711 102.379 244.72 102.308 244.727 102.236C244.73 102.197 244.733 102.158 244.736 102.119C244.741 102.039 244.745 101.959 244.747 101.878C244.748 101.846 244.748 101.814 244.748 101.781C244.748 101.693 244.746 101.605 244.742 101.517C244.741 101.491 244.74 101.464 244.738 101.438C244.732 101.344 244.724 101.251 244.713 101.157C244.711 101.144 244.711 101.13 244.709 101.117L244.708 101.12C244.609 100.3 244.32 99.5233 243.871 98.8695C243.358 98.1796 242.711 97.6343 241.98 97.2766C241.25 96.919 240.455 96.7589 239.66 96.809C239.221 96.8651 238.777 96.8743 238.336 96.8365C237.602 96.7147 236.981 96.1869 236.396 95.6769C234.762 94.2534 233.129 92.83 231.496 91.4066C230.95 90.8692 230.322 90.4473 229.644 90.1608C228.952 89.9211 228.122 90.0038 227.609 90.5761C226.692 91.6005 227.275 93.3632 226.907 94.7521C226.588 95.9551 225.561 96.7704 224.498 97.1767C223.435 97.5831 222.297 97.6722 221.205 97.9664C220.88 98.026 220.575 98.1843 220.324 98.4245C220.041 98.8131 219.903 99.3114 219.941 99.813C219.934 101.043 220.195 102.256 220.701 103.345C220.908 103.788 221.158 104.236 221.378 104.691C221.396 104.728 221.414 104.766 221.431 104.804C221.456 104.856 221.48 104.908 221.504 104.96C221.542 105.045 221.578 105.13 221.612 105.216C221.627 105.253 221.641 105.29 221.655 105.327C221.678 105.387 221.7 105.448 221.72 105.508C221.733 105.547 221.746 105.586 221.758 105.625C221.78 105.696 221.8 105.768 221.818 105.839C221.935 106.262 221.946 106.713 221.85 107.142C221.681 107.844 221.197 108.385 220.77 108.933C220.421 109.361 220.173 109.882 220.048 110.447L220.046 110.459C220.022 110.591 220.018 110.726 220.033 110.859C220.035 110.875 220.036 110.892 220.039 110.908C220.045 110.938 220.052 110.967 220.061 110.995C220.068 111.016 220.075 111.036 220.084 111.056C220.093 111.079 220.103 111.102 220.114 111.124C220.135 111.16 220.16 111.194 220.189 111.223C220.202 111.235 220.215 111.247 220.23 111.258C220.253 111.277 220.278 111.295 220.305 111.31C220.321 111.319 220.337 111.327 220.355 111.335C220.394 111.351 220.434 111.363 220.475 111.372C220.486 111.374 220.496 111.378 220.508 111.38C220.57 111.389 220.633 111.392 220.696 111.389C220.714 111.388 220.734 111.386 220.753 111.384C220.813 111.379 220.873 111.371 220.933 111.359C220.954 111.354 220.976 111.35 220.998 111.345C221.085 111.325 221.175 111.3 221.275 111.265C221.603 111.153 221.923 111.01 222.23 110.838C222.23 110.878 222.228 110.917 222.228 110.957C222.228 111.025 222.228 111.097 222.233 111.166C222.25 112.446 222.464 113.714 222.865 114.912C223.492 116.778 224.545 118.423 225.916 119.681C225.899 119.793 225.88 119.907 225.86 120.02C225.578 121.586 224.988 123.158 224.624 123.036C224.268 122.947 223.905 122.901 223.54 122.902C223.429 122.898 223.322 122.896 223.221 122.896L223.22 122.895C222.89 122.852 222.556 122.852 222.226 122.895C222.078 122.907 221.93 122.884 221.791 122.827C220.846 122.49 219.841 122.427 218.869 122.642C216.846 123.111 213.769 123.969 212.926 124.996C211.639 126.563 209.767 128.065 207.661 134.596C207.661 134.596 206.608 138.58 205.789 139.103C205.97 138.997 206.155 138.902 206.345 138.82C206.236 139.036 206.086 139.221 205.906 139.364C206.203 139.192 206.511 139.047 206.828 138.929C206.188 143.184 207.135 155.356 207.135 155.356C207.135 155.356 206.374 157.455 207.369 158.695C207.96 159.433 208.281 160.583 208.445 161.397C208.399 161.478 208.351 161.563 208.301 161.65V161.651C207.775 162.575 207.07 163.779 206.608 164.443C205.789 165.618 206.023 169.341 206.023 169.341C206.023 169.341 205.848 171.104 205.263 171.757C204.678 172.41 204.795 174.827 204.795 174.827L203.274 181.162C203.274 181.162 201.87 182.599 201.87 183.252C201.87 183.905 200.759 185.734 200.759 185.734C200.759 185.734 199.062 188.868 200.759 188.411C201.377 188.206 201.957 187.876 202.471 187.437L202.471 187.484C202.468 187.599 202.466 187.715 202.465 187.834C202.417 191.248 202.745 196.053 204.97 196.053C208.422 196.053 217.313 200.689 217.313 200.689C219.126 202.257 221.583 201.734 221.583 201.734C221.583 201.734 217.254 206.633 217.371 208.657C217.488 210.682 214.914 214.013 214.914 214.013L206.959 231.581C207.004 232.805 207.196 234.016 207.529 235.182C207.492 235.219 207.452 235.255 207.415 235.293C204.359 238.453 204.093 244.708 204.093 244.708L203.391 247.908L214.037 253.198C214.037 253.198 227.842 253.525 230.24 252.807C232.638 252.088 232.112 249.084 228.953 248.496C225.794 247.908 225.034 246.341 223.981 245.622C223.271 245.138 220.749 242.006 219.183 240.02C219.159 239.99 219.138 239.962 219.114 239.932L219.477 237.655C220.179 237.263 221.232 233.344 221.232 233.344C221.232 233.344 221.232 231.777 221.934 231.32C222.636 230.862 224.098 226.16 224.098 226.16C224.098 226.16 227.257 220.217 227.081 219.433C226.906 218.65 229.362 214.666 229.362 214.666C229.362 214.666 233.515 210.094 233.34 209.278C233.165 208.461 236.674 204.281 236.674 204.281C237.942 203.186 238.999 201.809 239.78 200.235C240.096 200.177 240.435 200.116 240.793 200.048C245.386 199.196 253.019 197.656 253.871 197.228C255.041 196.64 254.807 199.253 254.339 201.473C253.871 203.694 253.52 214.339 254.047 215.711C254.573 217.082 254.339 219.303 254.339 219.303L253.637 231.254L254.105 233.801C254.105 233.801 252.526 235.238 253.169 236.087C253.813 236.936 253.228 240.594 253.228 240.594C253.283 240.57 253.349 240.548 253.422 240.526C253.366 240.669 253.312 240.816 253.264 240.971C252.358 243.896 252.877 248.692 252.877 248.692V252.48C252.877 252.48 269.08 252.807 272.648 252.807C276.216 252.807 281.13 250.847 281.422 249.28C281.715 247.712 277.327 246.406 275.69 246.341ZM229.606 178.351L228.544 178.452C228.896 178.394 229.25 178.36 229.606 178.351ZM236.076 128.221C236.225 127.466 236.405 126.653 236.604 125.819L236.076 128.221ZM238.078 180.182C237.066 180.635 235.939 180.637 234.926 180.186L234.919 180.182C234.919 180.182 234.978 175.611 235.446 173.717C235.914 171.823 236.557 168.361 236.557 168.361C236.557 168.361 237.084 163.594 237.61 161.438C238.136 159.283 240.184 147.266 241.237 146.482C242.29 145.699 242.874 147.07 242.874 147.07C242.874 147.07 243.032 147.067 243.295 147.034C243.345 147.159 243.401 147.292 243.463 147.433C244.711 150.287 248.373 156.148 248.373 156.148C249.459 156.906 250.379 157.934 251.064 159.153C252.058 161.047 252.351 165.488 252.351 165.488C252.351 165.488 254.573 175.349 255.626 176.721C256.153 177.407 255.919 177.815 255.554 178.052C254.808 178.514 254.174 179.176 253.708 179.981C253.558 180.25 253.399 180.546 253.238 180.86C252.836 180.755 252.475 180.645 252.175 180.531C249.309 179.442 239.657 179.398 238.078 180.182Z" fill="url(#paint0_linear_416_1047)"/>
<path d="M252.494 248.731V252.487C252.494 252.487 268.348 252.811 271.84 252.811C275.331 252.811 280.139 250.868 280.425 249.313C280.712 247.759 276.419 246.464 274.816 246.399C273.213 246.334 273.156 245.622 271.096 244.391C269.933 243.697 268.166 241.68 266.85 240.057C265.834 238.805 265.086 237.786 265.086 237.786C265.086 237.786 256.557 237.591 254.096 239.146C253.53 239.504 253.138 240.206 252.872 241.074C251.985 243.974 252.494 248.731 252.494 248.731Z" fill="#434175"/>
<path opacity="0.1" d="M252.872 241.074C254.66 240.371 265.129 240.098 266.849 240.057C265.834 238.805 265.085 237.786 265.085 237.786C265.085 237.786 256.557 237.591 254.096 239.146C253.529 239.504 253.138 240.206 252.872 241.074Z" fill="black"/>
<path d="M206.875 181.183C206.875 181.183 207.206 181.409 207.8 181.815C207.908 181.887 208.023 181.968 208.147 182.052C208.523 182.31 208.976 182.617 209.492 182.969C216.685 187.874 236.309 201.171 237.383 201.065C237.664 201.038 238.51 200.894 239.678 200.679C239.987 200.622 240.319 200.561 240.669 200.494C245.163 199.649 252.632 198.122 253.466 197.697C254.611 197.114 254.382 199.705 253.924 201.907C253.466 204.109 253.123 214.665 253.638 216.025C254.153 217.385 253.924 219.587 253.924 219.587L253.237 231.439L253.695 233.965C253.695 233.965 252.15 235.389 252.779 236.231C253.409 237.073 252.837 240.7 252.837 240.7C254.668 239.923 267.089 239.664 267.089 239.664C267.089 239.664 266.574 234.483 267.031 233.252C267.489 232.022 267.146 224.704 267.146 224.704C267.146 224.704 267.432 219.134 266.917 217.839C266.402 216.543 267.089 208.254 267.089 208.254C267.089 208.254 267.547 203.332 267.661 193.293C267.776 183.255 262.624 182.931 262.624 182.931C262.624 182.931 261.937 182.871 260.894 182.757C258.855 182.535 255.455 182.112 253.183 181.553C252.718 181.444 252.258 181.306 251.806 181.14C249.002 180.06 239.558 180.017 238.012 180.794C237.023 181.244 235.918 181.245 234.928 180.798L234.921 180.794L233.719 178.592L222.239 179.7L221.022 179.818L209.72 180.908L208.942 180.983L206.875 181.183Z" fill="#565387"/>
<path opacity="0.1" d="M252.894 191.117C256.228 192.957 259.411 186.436 260.894 182.757C258.854 182.535 255.454 182.111 253.183 181.553C251.689 184.39 249.696 189.355 252.894 191.117Z" fill="black"/>
<path d="M242.877 147.053C242.947 147.498 243.084 147.927 243.281 148.32C244.503 151.15 248.086 156.962 248.086 156.962C249.152 157.716 250.052 158.735 250.719 159.941C251.692 161.819 251.978 166.223 251.978 166.223C251.978 166.223 254.153 176.002 255.183 177.362C255.699 178.042 255.47 178.447 255.112 178.682C254.381 179.142 253.76 179.799 253.306 180.595C251.805 183.325 249.409 188.741 252.779 190.599C257.358 193.125 261.651 179.888 261.651 179.888C261.651 179.888 260.793 170.497 260.564 168.878C260.335 167.259 258.961 160.588 258.961 160.588C258.961 160.588 257.988 157.739 257.416 155.731C256.843 153.723 255.126 151.392 255.126 151.392C255.126 151.392 252.035 144.398 251.177 143.361C250.778 142.881 250.22 142.275 249.736 141.763C249.176 141.171 248.716 140.706 248.716 140.706C248.716 140.706 242.82 145.499 242.877 147.053Z" fill="#EE8E9E"/>
<path d="M204.07 247.954L214.488 253.199C214.488 253.199 227.996 253.523 230.342 252.811C232.689 252.098 232.174 249.119 229.083 248.536C225.992 247.954 225.248 246.399 224.218 245.687C223.523 245.206 221.055 242.1 219.523 240.131C218.786 239.183 218.265 238.498 218.265 238.498C218.265 238.498 216.262 232.475 210.71 233.835C209.697 234.083 208.762 234.639 208.008 235.444C205.017 238.577 204.757 244.78 204.757 244.78L204.07 247.954Z" fill="#434175"/>
<path opacity="0.1" d="M208.146 182.052C208.523 182.309 208.975 182.616 209.492 182.969C216.685 187.874 236.308 201.171 237.382 201.065C237.664 201.038 238.51 200.894 239.677 200.679C239.986 200.622 240.318 200.561 240.669 200.494C240.682 200.469 240.695 200.444 240.708 200.42C241.284 199.281 241.725 198.06 242.018 196.79C243.22 191.609 237.268 187.659 237.268 187.659L236.008 186.551C234.578 183.825 224.275 181.247 224.275 181.247L222.947 180.238L222.238 179.7L222.052 179.558L220.44 178.333L212.369 178.981L209.972 180.724L209.719 180.908L208.83 181.556L208.146 182.052Z" fill="black"/>
<path opacity="0.1" d="M208.009 235.444C210.2 244.019 219.353 241.218 219.353 241.218L219.524 240.131C218.787 239.183 218.266 238.498 218.266 238.498C218.266 238.498 216.262 232.475 210.71 233.835C209.697 234.083 208.763 234.639 208.009 235.444Z" fill="black"/>
<path d="M205.616 196.532C208.993 196.532 217.693 201.13 217.693 201.13C219.468 202.684 221.872 202.166 221.872 202.166C221.872 202.166 217.636 207.023 217.751 209.031C217.865 211.039 215.347 214.341 215.347 214.341L207.562 231.763C208.135 244.132 219.353 240.7 219.353 240.7L219.811 237.786C220.498 237.397 221.528 233.511 221.528 233.511C221.528 233.511 221.528 231.957 222.215 231.504C222.902 231.05 224.333 226.387 224.333 226.387C224.333 226.387 227.424 220.494 227.252 219.717C227.08 218.94 229.484 214.989 229.484 214.989C229.484 214.989 233.548 210.456 233.376 209.646C233.205 208.837 236.639 204.692 236.639 204.692C237.883 203.602 238.917 202.237 239.678 200.679C240.255 199.54 240.695 198.32 240.989 197.05C241.958 192.878 238.285 189.502 236.819 188.348C236.464 188.068 236.238 187.918 236.238 187.918L234.979 186.811C234.329 185.57 231.843 184.361 229.325 183.412C227.51 182.727 225.677 182.176 224.506 181.846C223.731 181.628 223.245 181.507 223.245 181.507L221.918 180.498L221.451 180.143L221.022 179.818L219.411 178.592L215.82 178.88L211.34 179.24L208.943 180.983L207.801 181.815L203.327 185.069C203.327 185.069 203.209 186.315 203.171 187.987C203.169 188.116 203.167 188.247 203.164 188.382C203.117 191.768 203.439 196.532 205.616 196.532Z" fill="#565387"/>
<path d="M222.845 123.997L224.047 128.854C224.047 128.854 226.164 137.209 226.393 137.792C226.622 138.375 232.174 144.268 232.403 144.398C232.632 144.527 235.656 146.47 235.656 146.47C235.656 146.47 235.895 135.784 235.666 132.675C235.646 131.992 235.696 131.309 235.815 130.639C236.18 128.203 237.104 124.631 237.87 121.879C238.511 119.574 239.043 117.845 239.043 117.845C239.043 117.845 225.649 117.197 226.107 118.687C226.28 119.25 226.224 120.192 226.057 121.136C225.781 122.689 225.204 124.247 224.848 124.127C224.5 124.038 224.144 123.993 223.787 123.993C223.292 123.976 222.845 123.997 222.845 123.997Z" fill="#EE8E9E"/>
<path opacity="0.1" d="M226.057 121.136C227.693 122.681 229.726 123.588 231.854 123.722C233.982 123.856 236.092 123.21 237.869 121.879C238.51 119.574 239.043 117.845 239.043 117.845C239.043 117.845 225.649 117.197 226.107 118.687C226.28 119.25 226.224 120.192 226.057 121.136Z" fill="black"/>
<path d="M242.306 112.148C242.306 113.336 242.139 114.517 241.811 115.645C241.728 115.937 241.633 116.223 241.524 116.504C240.753 118.57 239.452 120.327 237.789 121.547C236.126 122.767 234.177 123.394 232.195 123.348C230.213 123.301 228.29 122.582 226.673 121.285C225.056 119.987 223.82 118.17 223.126 116.07C222.733 114.881 222.524 113.624 222.508 112.355C222.502 112.287 222.502 112.216 222.502 112.148C222.502 109.176 223.545 106.327 225.402 104.225C227.259 102.124 229.778 100.944 232.404 100.944C235.03 100.944 237.549 102.124 239.406 104.225C241.263 106.327 242.306 109.176 242.306 112.148Z" fill="#EE8E9E"/>
<path opacity="0.1" d="M222.845 123.997L224.047 128.854C224.047 128.854 226.164 137.208 226.393 137.791C226.622 138.374 232.174 144.268 232.403 144.397C232.632 144.527 235.656 146.47 235.656 146.47C235.656 146.47 235.895 135.784 235.666 132.675C235.646 131.992 235.696 131.309 235.815 130.639L235.036 134.229L235.094 141.418L235.551 141.807L234.521 143.555V142.26C234.521 142.26 230.858 138.245 230.286 136.561C229.713 134.877 227.653 131.828 227.653 131.828C227.653 131.828 225.306 127.364 225.249 126.587C225.204 125.981 224.218 124.58 223.787 123.993C223.292 123.976 222.845 123.997 222.845 123.997Z" fill="black"/>
<path opacity="0.1" d="M242.877 147.053C242.947 147.498 243.084 147.927 243.281 148.32C244.533 148.175 248.797 147.274 249.736 141.763C249.176 141.171 248.716 140.706 248.716 140.706C248.716 140.706 242.82 145.499 242.877 147.053Z" fill="black"/>
<path opacity="0.1" d="M203.164 188.382C204.319 187.457 205.418 186.195 206.074 185.846C207.047 185.328 208.535 183.644 208.535 183.644C208.535 183.644 208.913 183.354 209.492 182.969C210.555 182.264 212.296 181.244 213.629 181.118C214.824 181.005 218.794 180.718 221.917 180.498C224.177 180.337 225.993 180.211 225.993 180.211C225.993 180.211 229.713 178.722 231.316 179.693C232.463 180.344 233.673 180.844 234.922 181.183C234.922 181.183 234.923 181.042 234.929 180.798L234.922 180.794L233.72 178.592L221.022 179.818L219.41 178.592L211.34 179.24L208.943 180.983L206.875 181.183C206.875 181.183 207.206 181.409 207.8 181.815L203.327 185.069C203.327 185.069 203.189 186.515 203.164 188.382Z" fill="black"/>
<path d="M201.495 188.954C202.101 188.75 202.669 188.423 203.17 187.988V187.987C204.323 187.063 205.419 185.805 206.074 185.457C207.047 184.939 208.535 183.255 208.535 183.255C208.535 183.255 211.568 180.924 213.629 180.729C214.191 180.676 215.365 180.584 216.777 180.481C218.222 180.372 219.912 180.25 221.45 180.142C222.336 180.079 223.17 180.019 223.876 179.97C225.139 179.882 225.992 179.823 225.992 179.823C225.992 179.823 229.713 178.333 231.315 179.304C232.463 179.955 233.673 180.455 234.921 180.794C234.921 180.794 234.978 176.261 235.436 174.382C235.894 172.504 236.524 169.072 236.524 169.072C236.524 169.072 237.039 164.344 237.554 162.207C238.069 160.07 240.073 148.153 241.103 147.376C242.133 146.599 242.705 147.959 242.705 147.959C242.705 147.959 249.574 147.83 249.688 139.281C249.688 139.281 246.483 135.654 246.254 134.747C246.025 133.841 242.992 130.473 242.992 130.473C242.992 130.473 241.275 126.846 239.328 126.782C238.409 126.722 237.486 126.754 236.572 126.877L234.921 134.488L234.978 141.677L235.436 142.066L234.406 143.814V142.519C234.406 142.519 230.743 138.504 230.171 136.82C229.598 135.136 227.538 132.087 227.538 132.087C227.538 132.087 225.191 127.624 225.134 126.846C225.076 126.069 223.474 123.986 223.474 123.986C223.15 123.944 222.824 123.944 222.501 123.986C222.356 123.998 222.211 123.975 222.075 123.919C221.151 123.585 220.167 123.522 219.215 123.735C217.236 124.2 214.225 125.051 213.4 126.069C212.141 127.624 210.309 129.113 208.249 135.589L219.353 140.123L218.403 142.167L209.565 161.171C209.565 161.171 209.272 161.711 208.875 162.417V162.418C208.36 163.334 207.671 164.528 207.218 165.186C206.417 166.352 206.646 170.043 206.646 170.043C206.646 170.043 206.474 171.792 205.902 172.44C205.329 173.087 205.444 175.483 205.444 175.483L203.956 181.765C203.956 181.765 202.582 183.19 202.582 183.838C202.582 184.485 201.495 186.299 201.495 186.299C201.495 186.299 199.835 189.407 201.495 188.954Z" fill="#434175"/>
<path opacity="0.1" d="M260.106 193.617C260.106 193.617 256.5 194.977 255.527 196.92C254.554 198.863 260.106 193.617 260.106 193.617Z" fill="black"/>
<path opacity="0.1" d="M258.274 189.343C258.159 189.537 253.335 195.015 253.638 196.337C253.94 197.66 258.274 189.343 258.274 189.343Z" fill="black"/>
<path opacity="0.1" d="M231.773 193.229C231.773 193.229 226.393 196.099 225.935 197.352C225.477 198.604 231.773 193.229 231.773 193.229Z" fill="black"/>
<path opacity="0.1" d="M231.43 196.92C231.43 196.92 226.574 199.251 225.911 199.834C225.248 200.417 231.43 196.92 231.43 196.92Z" fill="black"/>
<path opacity="0.1" d="M229.197 201.907C229.197 201.907 227.047 203.72 225.861 202.295C224.676 200.871 229.197 201.907 229.197 201.907Z" fill="black"/>
<path opacity="0.1" d="M237.269 154.63C237.153 154.824 229.999 169.396 228.11 170.497C226.221 171.598 237.269 154.63 237.269 154.63Z" fill="black"/>
<path opacity="0.1" d="M236.925 160.135C236.925 160.459 229.942 177.362 228.797 177.556C227.652 177.75 236.925 160.135 236.925 160.135Z" fill="black"/>
<path opacity="0.1" d="M210.366 171.015C210.366 171.015 206.994 179.164 205.673 179.629C204.352 180.093 210.366 171.015 210.366 171.015Z" fill="black"/>
<path opacity="0.1" d="M209.795 167.388C209.795 167.388 208.632 170.238 207.925 170.238C207.219 170.238 209.795 167.388 209.795 167.388Z" fill="black"/>
<path opacity="0.1" d="M242.306 112.148C242.306 113.336 242.139 114.517 241.811 115.645C241.728 115.937 241.633 116.223 241.525 116.504C241.016 116.416 240.537 116.178 240.136 115.814C239.711 115.488 239.356 115.059 239.097 114.557C238.902 114.023 238.733 113.477 238.591 112.922C238.362 112.295 237.99 111.749 237.513 111.339C237.035 110.93 236.469 110.672 235.874 110.593C236.204 111.228 235.68 112.099 235.036 112.213C234.392 112.323 233.765 111.889 233.321 111.348C232.878 110.807 232.557 110.15 232.116 109.609C231.673 109.068 231.046 108.634 230.402 108.744C229.832 108.841 229.391 109.333 228.913 109.699C228.438 110.065 227.771 110.311 227.311 109.92C227.053 109.703 226.927 109.333 226.681 109.097C226.048 108.498 225.064 109.116 224.597 109.89C223.879 111.089 223.441 111.814 222.508 112.355C222.502 112.287 222.502 112.216 222.502 112.148C222.502 109.176 223.545 106.327 225.402 104.225C227.259 102.124 229.778 100.944 232.404 100.944C235.03 100.944 237.549 102.124 239.406 104.225C241.263 106.327 242.306 109.176 242.306 112.148Z" fill="black"/>
<path d="M224.599 109.566C225.064 108.792 226.048 108.172 226.683 108.775C226.929 109.008 227.055 109.378 227.311 109.597C227.771 109.989 228.439 109.743 228.915 109.376C229.391 109.008 229.833 108.518 230.402 108.42C231.046 108.309 231.674 108.744 232.116 109.285C232.559 109.826 232.879 110.483 233.322 111.024C233.764 111.565 234.392 111.999 235.036 111.888C235.68 111.776 236.205 110.904 235.874 110.269C236.469 110.349 237.035 110.606 237.512 111.016C237.989 111.425 238.362 111.971 238.59 112.598C238.732 113.153 238.902 113.699 239.097 114.233C239.356 114.734 239.712 115.163 240.137 115.488C240.663 115.924 241.299 116.291 241.941 116.165C242.582 116.039 243.125 115.207 242.827 114.552C243.032 114.904 243.472 114.413 243.539 113.998C243.684 113.088 243.639 112.152 243.407 111.265C243.09 110.061 242.427 108.867 242.682 107.645C242.885 106.678 243.616 105.983 244.059 105.124C244.846 103.603 244.637 101.553 243.681 100.162C243.183 99.4797 242.551 98.9395 241.836 98.5846C241.12 98.2297 240.341 98.07 239.561 98.1185C239.131 98.1741 238.697 98.1833 238.265 98.1458C237.547 98.025 236.939 97.5017 236.366 96.9959L231.572 92.7613C231.039 92.2294 230.425 91.8108 229.76 91.526C229.082 91.2882 228.27 91.3702 227.769 91.9378C226.871 92.9536 227.441 94.7016 227.081 96.0789C226.769 97.2718 225.764 98.0802 224.724 98.4831C223.684 98.8861 222.571 98.9745 221.502 99.2662C221.183 99.3257 220.885 99.4828 220.639 99.7205C220.362 100.108 220.228 100.601 220.265 101.097C220.258 102.316 220.513 103.518 221.009 104.6C221.564 105.808 222.444 107.049 222.133 108.365C221.968 109.061 221.494 109.597 221.076 110.141C220.17 111.32 219.864 113.062 221.569 112.454C223.211 111.867 223.672 111.108 224.599 109.566Z" fill="#434175"/>
<g opacity="0.1">
<path d="M243.54 112.722C243.473 113.137 243.033 113.628 242.828 113.275C243.126 113.93 242.583 114.762 241.941 114.889C241.3 115.015 240.663 114.648 240.138 114.212C239.713 113.887 239.357 113.458 239.098 112.957C238.903 112.422 238.733 111.877 238.591 111.321C238.362 110.695 237.99 110.149 237.513 109.739C237.035 109.33 236.47 109.072 235.875 108.993C236.206 109.628 235.681 110.5 235.037 110.611C234.393 110.723 233.765 110.289 233.323 109.748C232.88 109.207 232.56 108.55 232.117 108.009C231.675 107.467 231.047 107.033 230.403 107.144C229.834 107.242 229.392 107.732 228.916 108.099C228.44 108.467 227.772 108.713 227.312 108.32C227.055 108.102 226.93 107.732 226.684 107.498C226.049 106.896 225.065 107.515 224.599 108.29C223.673 109.831 223.212 110.591 221.57 111.177C221.031 111.37 220.694 111.326 220.512 111.141C220.152 112.077 220.316 112.902 221.57 112.454C223.212 111.868 223.673 111.108 224.599 109.567C225.065 108.792 226.049 108.173 226.684 108.775C226.93 109.009 227.055 109.378 227.312 109.597C227.772 109.989 228.44 109.743 228.916 109.376C229.392 109.009 229.834 108.519 230.403 108.421C231.047 108.31 231.675 108.744 232.117 109.286C232.56 109.827 232.88 110.483 233.323 111.025C233.765 111.566 234.393 112 235.037 111.888C235.681 111.777 236.206 110.905 235.875 110.27C236.47 110.349 237.035 110.607 237.513 111.016C237.99 111.425 238.362 111.972 238.591 112.598C238.733 113.153 238.903 113.699 239.098 114.233C239.357 114.735 239.713 115.164 240.138 115.489C240.663 115.924 241.3 116.292 241.941 116.165C242.583 116.039 243.126 115.207 242.828 114.552C243.033 114.905 243.473 114.414 243.54 113.999C243.629 113.44 243.646 112.869 243.591 112.305C243.578 112.444 243.562 112.584 243.54 112.722Z" fill="black"/>
<path d="M222.119 107.138C222.123 107.121 222.13 107.105 222.134 107.088C222.445 105.773 221.565 104.531 221.01 103.323C220.621 102.471 220.379 101.543 220.299 100.588C220.277 100.757 220.266 100.927 220.266 101.098C220.259 102.316 220.514 103.518 221.01 104.6C221.39 105.426 221.92 106.267 222.119 107.138Z" fill="black"/>
<path d="M244.06 103.848C243.616 104.706 242.886 105.401 242.683 106.369C242.605 106.778 242.608 107.202 242.693 107.61C242.906 106.661 243.622 105.972 244.06 105.125C244.473 104.295 244.628 103.332 244.501 102.391C244.439 102.904 244.289 103.399 244.06 103.848Z" fill="black"/>
</g>
<path opacity="0.1" d="M208.875 162.417V162.418C208.951 162.776 209.01 163.138 209.05 163.502C209.05 163.502 213.572 175.484 214.144 176.196C214.321 176.415 214.985 177.493 215.819 178.88C216.121 179.381 216.445 179.924 216.777 180.481C218.508 183.387 220.44 186.688 220.44 186.688L224.676 190.897C224.676 190.897 233.89 191.731 236.818 188.348C236.463 188.068 236.238 187.918 236.238 187.918L234.979 186.811C234.328 185.57 231.842 184.361 229.325 183.412C227.005 183.431 225.109 183.644 225.109 183.644L224.505 181.846L223.876 179.97L220.674 170.432C220.674 170.432 218.609 158.386 217.922 157.803C217.235 157.221 217.407 155.407 217.407 155.407C217.407 155.407 218.666 150.291 218.208 149.578C217.75 148.866 218.952 143.62 218.952 143.62C218.833 143.108 218.648 142.619 218.403 142.167L209.565 161.171C209.565 161.171 209.272 161.711 208.875 162.417Z" fill="black"/>
<path d="M219.066 143.231C219.066 143.231 217.864 148.477 218.322 149.19C218.78 149.902 217.521 155.018 217.521 155.018C217.521 155.018 217.349 156.832 218.036 157.414C218.723 157.997 220.788 170.043 220.788 170.043L225.223 183.255C225.223 183.255 239.1 181.701 237.669 186.623C236.238 191.545 224.79 190.508 224.79 190.508L220.555 186.299C220.555 186.299 214.831 176.52 214.259 175.807C213.686 175.095 209.164 163.114 209.164 163.114C209.164 163.114 208.935 160.717 207.962 159.487C206.989 158.256 207.733 156.175 207.733 156.175C207.733 156.175 206.531 140.511 207.791 138.633C209.05 136.755 217.75 137.597 219.066 143.231Z" fill="#EE8E9E"/>
<path opacity="0.1" d="M211.969 133.388L208.363 135.849C208.363 135.849 207.333 139.799 206.531 140.317C206.531 140.317 213.743 135.784 219.181 146.211C219.181 146.211 219.009 144.851 219.753 144.203C220.497 143.555 220.325 140.771 220.325 140.771C220.523 140.331 220.696 139.876 220.841 139.411C221.356 137.986 218.666 129.826 211.969 133.388Z" fill="black"/>
<path d="M211.855 133.128L208.249 135.589C208.249 135.589 207.218 139.54 206.417 140.058C206.417 140.058 213.629 135.525 219.066 145.951C219.066 145.951 218.895 144.591 219.639 143.944C220.383 143.296 220.211 140.511 220.211 140.511C220.409 140.071 220.581 139.617 220.726 139.151C221.241 137.727 218.551 129.566 211.855 133.128Z" fill="#434175"/>
<path d="M179.715 246.546C185.652 246.546 190.464 240.765 190.464 233.635C190.464 226.504 185.652 220.724 179.715 220.724C173.778 220.724 168.965 226.504 168.965 233.635C168.965 240.765 173.778 246.546 179.715 246.546Z" fill="#FBD56F"/>
<path opacity="0.1" d="M179.715 246.546C185.652 246.546 190.464 240.765 190.464 233.635C190.464 226.504 185.652 220.724 179.715 220.724C173.778 220.724 168.965 226.504 168.965 233.635C168.965 240.765 173.778 246.546 179.715 246.546Z" fill="black"/>
<path d="M181.57 246.546C187.507 246.546 192.32 240.894 192.32 233.923C192.32 226.951 187.507 221.299 181.57 221.299C175.633 221.299 170.82 226.951 170.82 233.923C170.82 240.894 175.633 246.546 181.57 246.546Z" fill="#FBD56F"/>
<path d="M25.8002 240.73C33.1328 240.73 39.077 239.593 39.077 238.19C39.077 236.788 33.1328 235.651 25.8002 235.651C18.4676 235.651 12.5234 236.788 12.5234 238.19C12.5234 239.593 18.4676 240.73 25.8002 240.73Z" fill="#43B7FF"/>
<path d="M31.2912 234.036C31.8598 233.438 32.3932 232.733 32.557 231.874C32.7208 231.016 32.3975 229.987 31.6725 229.673C30.8602 229.321 29.9921 229.959 29.3339 230.602C28.6758 231.245 27.9215 231.98 27.0602 231.843C27.5032 231.389 27.8347 230.813 28.0223 230.17C28.21 229.528 28.2473 228.841 28.1307 228.178C28.0929 227.904 27.99 227.646 27.833 227.433C27.382 226.888 26.5645 227.122 26.0246 227.552C24.3075 228.918 23.8284 231.557 23.819 233.933C23.6458 233.076 23.7917 232.183 23.7874 231.304C23.7832 230.425 23.5703 229.451 22.915 228.979C22.5068 228.73 22.0478 228.608 21.5844 228.625C20.8125 228.593 19.9529 228.681 19.4257 229.319C18.7708 230.113 18.9406 231.445 19.5104 232.318C20.0802 233.192 20.9469 233.74 21.7447 234.343C22.3847 234.774 22.9304 235.363 23.3414 236.066C23.3897 236.164 23.4294 236.267 23.4598 236.374H28.2987C29.385 235.751 30.3916 234.965 31.2912 234.036Z" fill="#43B7FF"/>
<path d="M145.867 221.631C146.459 222.547 146.943 223.547 147.306 224.604C147.403 224.878 147.497 225.165 147.586 225.466C149.016 230.303 146.75 236.103 146.102 235.478C145.454 234.852 143.435 233.691 143.044 235.322C142.654 236.954 141.211 238.621 141.211 238.621C138.584 241.611 136.205 238.38 134.644 235.042C134.134 233.941 133.681 232.807 133.286 231.646C132.939 230.621 132.74 229.913 132.74 229.913L143.685 219.362C143.685 219.362 144.743 219.911 145.867 221.631Z" fill="#43B7FF"/>
<path d="M128.617 228.377C129.209 229.294 129.693 230.293 130.056 231.351C130.152 231.624 130.247 231.911 130.336 232.213C131.766 237.05 129.5 242.85 128.852 242.224C128.204 241.599 126.185 240.438 125.794 242.069C125.404 243.7 123.961 245.368 123.961 245.368C121.334 248.358 118.955 245.127 117.394 241.789C116.884 240.687 116.431 239.554 116.036 238.393C115.689 237.368 115.49 236.659 115.49 236.659L126.435 226.108C126.435 226.108 127.493 226.658 128.617 228.377Z" fill="#43B7FF"/>
<path d="M93.9837 237.698C93.9223 238.83 93.731 239.949 93.4146 241.026C93.3344 241.306 93.2449 241.595 93.1435 241.891C91.5165 246.648 86.5001 249.477 86.3541 248.527C86.2082 247.578 85.3084 245.226 84.0878 246.2C82.8671 247.174 80.8163 247.416 80.8163 247.416C77.1068 247.821 77.098 243.616 77.7789 239.918C78.0075 238.702 78.2978 237.502 78.6485 236.323C78.9599 235.284 79.2063 234.594 79.2063 234.594L93.5831 234.375C93.5831 234.375 94.0877 235.562 93.9837 237.698Z" fill="#43B7FF"/>
<path d="M75.4076 232.397C75.3461 233.529 75.1548 234.648 74.8385 235.725C74.7583 236.005 74.6687 236.294 74.5673 236.59C72.9404 241.347 67.9239 244.176 67.778 243.226C67.632 242.277 66.7323 239.925 65.5116 240.899C64.2909 241.873 62.2402 242.115 62.2402 242.115C58.5306 242.52 58.5218 238.315 59.2028 234.618C59.4313 233.401 59.7216 232.201 60.0724 231.023C60.3837 229.983 60.6301 229.294 60.6301 229.294L75.007 229.074C75.007 229.074 75.5115 230.261 75.4076 232.397Z" fill="#43B7FF"/>
<path opacity="0.2" d="M145.867 221.631C146.459 222.547 146.943 223.547 147.306 224.604C147.403 224.878 147.497 225.165 147.586 225.466C149.016 230.303 146.75 236.103 146.102 235.478C145.454 234.852 143.435 233.691 143.044 235.322C142.654 236.954 141.211 238.621 141.211 238.621C138.584 241.611 136.205 238.38 134.644 235.042C134.134 233.941 133.681 232.807 133.286 231.646C132.939 230.621 132.74 229.913 132.74 229.913L143.685 219.362C143.685 219.362 144.743 219.911 145.867 221.631Z" fill="black"/>
<path opacity="0.2" d="M128.617 228.377C129.209 229.294 129.693 230.293 130.056 231.351C130.152 231.624 130.247 231.911 130.336 232.213C131.766 237.05 129.5 242.85 128.852 242.224C128.204 241.599 126.185 240.438 125.794 242.069C125.404 243.7 123.961 245.368 123.961 245.368C121.334 248.358 118.955 245.127 117.394 241.789C116.884 240.687 116.431 239.554 116.036 238.393C115.689 237.368 115.49 236.659 115.49 236.659L126.435 226.108C126.435 226.108 127.493 226.658 128.617 228.377Z" fill="black"/>
<path opacity="0.2" d="M93.9837 237.698C93.9223 238.83 93.731 239.949 93.4146 241.026C93.3344 241.306 93.2449 241.595 93.1435 241.891C91.5165 246.648 86.5001 249.477 86.3541 248.527C86.2082 247.578 85.3084 245.226 84.0878 246.2C82.8671 247.174 80.8163 247.416 80.8163 247.416C77.1068 247.821 77.098 243.616 77.7789 239.918C78.0075 238.702 78.2978 237.502 78.6485 236.323C78.9599 235.284 79.2063 234.594 79.2063 234.594L93.5831 234.375C93.5831 234.375 94.0877 235.562 93.9837 237.698Z" fill="black"/>
<path opacity="0.2" d="M75.4076 232.397C75.3461 233.529 75.1548 234.648 74.8385 235.725C74.7583 236.005 74.6687 236.294 74.5673 236.59C72.9404 241.347 67.9239 244.176 67.778 243.226C67.632 242.277 66.7323 239.925 65.5116 240.899C64.2909 241.873 62.2402 242.115 62.2402 242.115C58.5306 242.52 58.5218 238.315 59.2028 234.618C59.4313 233.401 59.7216 232.201 60.0724 231.023C60.3837 229.983 60.6301 229.294 60.6301 229.294L75.007 229.074C75.007 229.074 75.5115 230.261 75.4076 232.397Z" fill="black"/>
<path d="M175.06 161.105C175.06 204.553 162.07 239.775 102.124 239.775C61.8426 239.775 30.6788 228.45 29.1881 161.105C28.2267 117.67 61.8426 82.4341 102.124 82.4341C142.405 82.4341 175.06 117.656 175.06 161.105Z" fill="#43B7FF"/>
<path opacity="0.2" d="M88.4414 83.8076H88.4499C88.448 83.8089 88.4458 83.8097 88.4435 83.81L88.4414 83.8076Z" fill="black"/>
<path opacity="0.2" d="M88.5847 83.7814C88.7699 83.7477 89.1362 83.6898 89.6686 83.644L88.4824 83.8031C88.4995 83.7983 88.5207 83.7934 88.5463 83.7886C88.5591 83.7862 88.5697 83.7838 88.5847 83.7814Z" fill="black"/>
<path opacity="0.2" d="M142.479 115.926L137.155 118.095C134.441 113.977 131.521 110.038 128.409 106.298C125.013 102.199 121.307 98.4426 117.334 95.0719C103.703 83.6412 93.1595 83.3497 89.6777 83.6436L97.6805 82.5786C105.244 84.0511 112.518 87.0261 119.165 91.3661C123.816 94.3995 128.147 98.02 132.076 102.158C139.044 109.476 142.479 115.926 142.479 115.926Z" fill="black"/>
<path opacity="0.2" d="M94.3511 120.023C94.3511 120.023 87.3237 93.5179 93.2864 86.2894C93.2864 86.2894 102.656 82.6752 109.684 103.156L94.3511 120.023Z" fill="black"/>
<path d="M129.936 95.2673C129.936 95.2673 148.572 77.3484 156.816 80.6273C156.816 80.6273 163.502 88.8878 149.742 104.389L129.936 95.2673Z" fill="#43B7FF"/>
<path opacity="0.2" d="M129.936 95.2673C129.936 95.2673 148.572 77.3484 156.816 80.6273C156.816 80.6273 163.502 88.8878 149.742 104.389L129.936 95.2673Z" fill="black"/>
<path d="M188.05 181.104C188.05 204.458 173.238 222.909 159.301 222.909C145.364 222.909 137.58 204.458 137.58 181.104C137.58 157.749 148.901 139.729 162.815 138.817C184.855 137.371 188.05 157.749 188.05 181.104Z" fill="#43B7FF"/>
<path opacity="0.2" d="M188.05 181.104C188.05 204.458 173.238 222.909 159.301 222.909C145.364 222.909 137.58 204.458 137.58 181.104C137.58 157.749 148.901 139.729 162.815 138.817C184.855 137.371 188.05 157.749 188.05 181.104Z" fill="black"/>
<path d="M158.451 191.344C161.038 191.344 163.136 188.323 163.136 184.597C163.136 180.871 161.038 177.851 158.451 177.851C155.863 177.851 153.766 180.871 153.766 184.597C153.766 188.323 155.863 191.344 158.451 191.344Z" fill="#43B7FF"/>
<path d="M175.06 185.561C177.647 185.561 179.745 182.541 179.745 178.815C179.745 175.088 177.647 172.068 175.06 172.068C172.473 172.068 170.375 175.088 170.375 178.815C170.375 182.541 172.473 185.561 175.06 185.561Z" fill="#43B7FF"/>
<path d="M132.986 97.8068C132.989 99.318 132.678 100.809 132.077 102.158C131.283 103.952 129.996 105.405 128.41 106.298C125.013 102.199 121.307 98.4427 117.334 95.072C117.688 93.6955 118.314 92.4282 119.165 91.3662C119.899 90.4405 120.797 89.6995 121.799 89.1911C122.802 88.6826 123.888 88.4181 124.987 88.4146C129.404 88.4145 132.986 92.6191 132.986 97.8068Z" fill="#FAD46F"/>
</g>
<defs>
<linearGradient id="paint0_linear_416_1047" x1="240.72" y1="253.272" x2="240.72" y2="90.0347" gradientUnits="userSpaceOnUse">
<stop stop-color="#808080" stop-opacity="0.25"/>
<stop offset="0.53514" stop-color="#808080" stop-opacity="0.12"/>
<stop offset="1" stop-color="#808080" stop-opacity="0.1"/>
</linearGradient>
<clipPath id="clip0_416_1047">
<rect width="320" height="260" fill="white"/>
</clipPath>
</defs>
</svg>
