<svg id="visual" viewBox="0 0 900 600" width="900" height="600" xmlns="http://www.w3.org/2000/svg" xmlns:xlink="http://www.w3.org/1999/xlink" version="1.1"><rect x="0" y="0" width="900" height="600" fill="#a7c7e7"></rect><defs><linearGradient id="grad1_0" x1="33.3%" y1="100%" x2="100%" y2="0%"><stop offset="20%" stop-color="#a7c7e7" stop-opacity="1"></stop><stop offset="80%" stop-color="#a7c7e7" stop-opacity="1"></stop></linearGradient></defs><defs><linearGradient id="grad2_0" x1="0%" y1="100%" x2="66.7%" y2="0%"><stop offset="20%" stop-color="#a7c7e7" stop-opacity="1"></stop><stop offset="80%" stop-color="#a7c7e7" stop-opacity="1"></stop></linearGradient></defs><g transform="translate(900, 600)"><path d="M-162.2 0C-150.7 -14.2 -139.2 -28.3 -134.1 -43.6C-129 -58.8 -130.2 -75.1 -125.4 -91.1C-120.5 -107.1 -109.6 -122.7 -95.4 -131.3C-81.2 -139.9 -63.7 -141.5 -47.3 -145.5C-30.8 -149.5 -15.4 -155.9 0 -162.2L0 0Z" fill="#37474f"></path></g><g transform="translate(0, 0)"><path d="M162.2 0C150.3 14.6 138.3 29.2 130.3 42.3C122.2 55.5 118.1 67.1 114.1 82.9C110.1 98.7 106.2 118.6 95.4 131.3C84.6 143.9 66.8 149.2 49.8 153.1C32.7 157.1 16.4 159.7 0 162.2L0 0Z" fill="#37474f"></path></g></svg>