<svg id="visual" viewBox="0 0 900 600" width="900" height="600" xmlns="http://www.w3.org/2000/svg" xmlns:xlink="http://www.w3.org/1999/xlink" version="1.1"><path d="M0 277L16.7 275C33.3 273 66.7 269 100 257C133.3 245 166.7 225 200 213C233.3 201 266.7 197 300 207C333.3 217 366.7 241 400 255C433.3 269 466.7 273 500 253C533.3 233 566.7 189 600 177C633.3 165 666.7 185 700 205C733.3 225 766.7 245 800 242C833.3 239 866.7 213 883.3 200L900 187L900 0L883.3 0C866.7 0 833.3 0 800 0C766.7 0 733.3 0 700 0C666.7 0 633.3 0 600 0C566.7 0 533.3 0 500 0C466.7 0 433.3 0 400 0C366.7 0 333.3 0 300 0C266.7 0 233.3 0 200 0C166.7 0 133.3 0 100 0C66.7 0 33.3 0 16.7 0L0 0Z" fill="#c3d9ef"></path><path d="M0 409L16.7 415C33.3 421 66.7 433 100 431C133.3 429 166.7 413 200 402C233.3 391 266.7 385 300 385C333.3 385 366.7 391 400 404C433.3 417 466.7 437 500 424C533.3 411 566.7 365 600 340C633.3 315 666.7 311 700 336C733.3 361 766.7 415 800 414C833.3 413 866.7 357 883.3 329L900 301L900 185L883.3 198C866.7 211 833.3 237 800 240C766.7 243 733.3 223 700 203C666.7 183 633.3 163 600 175C566.7 187 533.3 231 500 251C466.7 271 433.3 267 400 253C366.7 239 333.3 215 300 205C266.7 195 233.3 199 200 211C166.7 223 133.3 243 100 255C66.7 267 33.3 271 16.7 273L0 275Z" fill="#a7c7e7"></path><path d="M0 601L16.7 601C33.3 601 66.7 601 100 601C133.3 601 166.7 601 200 601C233.3 601 266.7 601 300 601C333.3 601 366.7 601 400 601C433.3 601 466.7 601 500 601C533.3 601 566.7 601 600 601C633.3 601 666.7 601 700 601C733.3 601 766.7 601 800 601C833.3 601 866.7 601 883.3 601L900 601L900 299L883.3 327C866.7 355 833.3 411 800 412C766.7 413 733.3 359 700 334C666.7 309 633.3 313 600 338C566.7 363 533.3 409 500 422C466.7 435 433.3 415 400 402C366.7 389 333.3 383 300 383C266.7 383 233.3 389 200 400C166.7 411 133.3 427 100 429C66.7 431 33.3 419 16.7 413L0 407Z" fill="#7ea5ce"></path></svg>