<svg id="visual" viewBox="0 0 1440 800" width="1440" height="800" xmlns="http://www.w3.org/2000/svg" xmlns:xlink="http://www.w3.org/1999/xlink" version="1.1"><path d="M0 281L26.7 290.3C53.3 299.7 106.7 318.3 160 315.7C213.3 313 266.7 289 320 297C373.3 305 426.7 345 480 361C533.3 377 586.7 369 640 341C693.3 313 746.7 265 800 259.7C853.3 254.3 906.7 291.7 960 314.3C1013.3 337 1066.7 345 1120 345C1173.3 345 1226.7 337 1280 343.7C1333.3 350.3 1386.7 371.7 1413.3 382.3L1440 393L1440 0L1413.3 0C1386.7 0 1333.3 0 1280 0C1226.7 0 1173.3 0 1120 0C1066.7 0 1013.3 0 960 0C906.7 0 853.3 0 800 0C746.7 0 693.3 0 640 0C586.7 0 533.3 0 480 0C426.7 0 373.3 0 320 0C266.7 0 213.3 0 160 0C106.7 0 53.3 0 26.7 0L0 0Z" fill="white"></path><path d="M0 569L26.7 585C53.3 601 106.7 633 160 633C213.3 633 266.7 601 320 582.3C373.3 563.7 426.7 558.3 480 563.7C533.3 569 586.7 585 640 606.3C693.3 627.7 746.7 654.3 800 650.3C853.3 646.3 906.7 611.7 960 595.7C1013.3 579.7 1066.7 582.3 1120 583.7C1173.3 585 1226.7 585 1280 594.3C1333.3 603.7 1386.7 622.3 1413.3 631.7L1440 641L1440 391L1413.3 380.3C1386.7 369.7 1333.3 348.3 1280 341.7C1226.7 335 1173.3 343 1120 343C1066.7 343 1013.3 335 960 312.3C906.7 289.7 853.3 252.3 800 257.7C746.7 263 693.3 311 640 339C586.7 367 533.3 375 480 359C426.7 343 373.3 303 320 295C266.7 287 213.3 311 160 313.7C106.7 316.3 53.3 297.7 26.7 288.3L0 279Z" fill="#a7c7e7"></path><path d="M0 801L26.7 801C53.3 801 106.7 801 160 801C213.3 801 266.7 801 320 801C373.3 801 426.7 801 480 801C533.3 801 586.7 801 640 801C693.3 801 746.7 801 800 801C853.3 801 906.7 801 960 801C1013.3 801 1066.7 801 1120 801C1173.3 801 1226.7 801 1280 801C1333.3 801 1386.7 801 1413.3 801L1440 801L1440 639L1413.3 629.7C1386.7 620.3 1333.3 601.7 1280 592.3C1226.7 583 1173.3 583 1120 581.7C1066.7 580.3 1013.3 577.7 960 593.7C906.7 609.7 853.3 644.3 800 648.3C746.7 652.3 693.3 625.7 640 604.3C586.7 583 533.3 567 480 561.7C426.7 556.3 373.3 561.7 320 580.3C266.7 599 213.3 631 160 631C106.7 631 53.3 599 26.7 583L0 567Z" fill="black"></path></svg>