<svg id="visual" viewBox="0 0 1440 800" width="1440" height="800" xmlns="http://www.w3.org/2000/svg" xmlns:xlink="http://www.w3.org/1999/xlink" version="1.1"><rect x="0" y="0" width="1440" height="800" fill="#ffffff"></rect><path d="M0 234L48 224C96 214 192 194 288 211.8C384 229.7 480 285.3 576 288.7C672 292 768 243 864 241.2C960 239.3 1056 284.7 1152 284.7C1248 284.7 1344 239.3 1392 216.7L1440 194L1440 801L1392 801C1344 801 1248 801 1152 801C1056 801 960 801 864 801C768 801 672 801 576 801C480 801 384 801 288 801C192 801 96 801 48 801L0 801Z" fill="#a7c7e7"></path><path d="M0 534L48 543.2C96 552.3 192 570.7 288 577.5C384 584.3 480 579.7 576 587.3C672 595 768 615 864 609C960 603 1056 571 1152 554.8C1248 538.7 1344 538.3 1392 538.2L1440 538L1440 801L1392 801C1344 801 1248 801 1152 801C1056 801 960 801 864 801C768 801 672 801 576 801C480 801 384 801 288 801C192 801 96 801 48 801L0 801Z" fill="#181818"></path></svg>