<svg id="visual" viewBox="0 0 900 600" width="900" height="600" xmlns="http://www.w3.org/2000/svg" xmlns:xlink="http://www.w3.org/1999/xlink" version="1.1"><path d="M0 157L16.7 167C33.3 177 66.7 197 100 191C133.3 185 166.7 153 200 151C233.3 149 266.7 177 300 179C333.3 181 366.7 157 400 136C433.3 115 466.7 97 500 93C533.3 89 566.7 99 600 103C633.3 107 666.7 105 700 119C733.3 133 766.7 163 800 181C833.3 199 866.7 205 883.3 208L900 211L900 0L883.3 0C866.7 0 833.3 0 800 0C766.7 0 733.3 0 700 0C666.7 0 633.3 0 600 0C566.7 0 533.3 0 500 0C466.7 0 433.3 0 400 0C366.7 0 333.3 0 300 0C266.7 0 233.3 0 200 0C166.7 0 133.3 0 100 0C66.7 0 33.3 0 16.7 0L0 0Z" fill="#c3d9ef"></path><path d="M0 355L16.7 357C33.3 359 66.7 363 100 370C133.3 377 166.7 387 200 399C233.3 411 266.7 425 300 428C333.3 431 366.7 423 400 413C433.3 403 466.7 391 500 368C533.3 345 566.7 311 600 308C633.3 305 666.7 333 700 359C733.3 385 766.7 409 800 422C833.3 435 866.7 437 883.3 438L900 439L900 209L883.3 206C866.7 203 833.3 197 800 179C766.7 161 733.3 131 700 117C666.7 103 633.3 105 600 101C566.7 97 533.3 87 500 91C466.7 95 433.3 113 400 134C366.7 155 333.3 179 300 177C266.7 175 233.3 147 200 149C166.7 151 133.3 183 100 189C66.7 195 33.3 175 16.7 165L0 155Z" fill="#a7c7e7"></path><path d="M0 601L16.7 601C33.3 601 66.7 601 100 601C133.3 601 166.7 601 200 601C233.3 601 266.7 601 300 601C333.3 601 366.7 601 400 601C433.3 601 466.7 601 500 601C533.3 601 566.7 601 600 601C633.3 601 666.7 601 700 601C733.3 601 766.7 601 800 601C833.3 601 866.7 601 883.3 601L900 601L900 437L883.3 436C866.7 435 833.3 433 800 420C766.7 407 733.3 383 700 357C666.7 331 633.3 303 600 306C566.7 309 533.3 343 500 366C466.7 389 433.3 401 400 411C366.7 421 333.3 429 300 426C266.7 423 233.3 409 200 397C166.7 385 133.3 375 100 368C66.7 361 33.3 357 16.7 355L0 353Z" fill="#7ea5ce"></path></svg>