<?xml version="1.0" encoding="utf-8"?>
<!-- Generator: Adobe Illustrator 25.2.0, SVG Export Plug-In . SVG Version: 6.00 Build 0)  -->
<svg version="1.1" id="Layer_1" xmlns="http://www.w3.org/2000/svg" xmlns:xlink="http://www.w3.org/1999/xlink" x="0px" y="0px"
	 viewBox="0 0 2000 799.7" style="enable-background:new 0 0 2000 799.7;" xml:space="preserve">
<style type="text/css">
	.st0{fill:#FFFFFF;}
	.st1{opacity:0.8;}
</style>
<g>
	<g>
		<g>
			<path class="st0" d="M207.39,173.09c6.36-7.4,13.12-14.25,21.74-19.06c20.42-11.4,61.2-10.9,79.12,15.42
				c2.05,3.02,2.61,8.69,6.42,8.45c2.5-0.15,4.68-5.12,7.04-7.91c17.89-21.18,41.46-25.62,67.26-21.92
				c26.94,3.86,40.13,21.84,45.58,46.93c2.7,12.41,3.56,25.03,3.61,37.69c0.11,31.72,0.02,63.43,0.25,95.15
				c0.04,4.79-1.23,6.39-6.16,6.21c-10.25-0.38-20.53-0.11-30.8-0.11c-7.23,0-7.24-0.01-7.24-7.01c-0.02-29.7-0.05-59.4-0.06-89.1
				c0-8.84-1.24-17.5-3.19-26.12c-6.42-28.31-34.23-29.19-49.31-17.68c-12.08,9.21-19.64,21.19-19.44,37.43
				c0.38,31.53,0.12,63.07,0.11,94.6c0,7.88-0.01,7.88-8.12,7.88c-10.08,0-20.18-0.25-30.25,0.11c-4.79,0.17-6.25-1.15-6.21-6.08
				c0.22-29.7,0.1-59.4,0.09-89.1c0-9-0.85-17.88-2.95-26.69c-6.25-26.19-27.34-29.35-46.29-20.29
				c-7.55,3.61-13.69,9.08-19.28,15.24c-2.49,2.74-3.5,5.69-3.49,9.43c0.11,37.22-0.02,74.43,0.17,111.65
				c0.02,4.95-1.21,6.75-6.41,6.57c-10.99-0.38-22-0.24-32.99-0.05c-3.74,0.06-5.12-1.01-5.11-4.94c0.1-58.12,0.1-116.23,0-174.35
				c-0.01-3.86,1.2-5.03,5.02-4.96c11.36,0.22,22.73,0.22,34.1,0c4.02-0.08,5.62,1.03,5.38,5.25c-0.32,5.59-0.08,11.21-0.08,16.81
				C206.39,172.72,206.89,172.9,207.39,173.09z"/>
		</g>
		<g>
			<path class="st0" d="M643.5,175.14c-23.29-24.08-51.57-33.3-84.64-24.67c-10.59,2.76-19.95,8.13-28.45,15.01
				c-0.91,0.74-1.69,2.28-3.19,1.54c-1.42-0.7-0.94-2.25-0.97-3.47c-0.07-2.93-0.15-5.87-0.01-8.8c0.15-3.04-1.05-4.27-4.15-4.25
				c-11.91,0.1-23.83,0.12-35.75-0.01c-3.38-0.04-4.72,1.29-4.36,4.56c0.08,0.72,0.01,1.47,0.01,2.2
				c0,91.48,0.04,182.95-0.11,274.43c0,1.3,0.09,2.37,0.29,3.28c14.53-9.5,29.09-18.87,44.11-27.39
				c-0.1-30.69-0.07-61.38-0.02-92.07c0-2.22-0.93-4.75,1.15-6.71c1.79,0.68,2.3,2.38,3.26,3.65c5.71,7.57,12.44,14.04,21.08,18.06
				c25.27,11.75,49.9,8.5,72.9-5.53C676.27,293.48,685.64,218.73,643.5,175.14z M623.13,241.49c-0.05,25.03-15.17,45.81-37.66,52.69
				c-21.48,6.57-47.91-5.28-57.5-25.72c-0.83-1.77-0.85-3.53-0.85-5.35c-0.02-13.93,0.01-27.86-0.03-41.8
				c-0.01-2.44,0.4-4.61,1.67-6.78c10.3-17.57,30.84-28.64,48.6-26.08c21.46,3.1,38.75,18.59,43.99,39.3
				C622.57,232.59,623.42,237.43,623.13,241.49z"/>
		</g>
		<g>
			<path class="st0" d="M880.81,242c0,28.78-0.1,57.56,0.1,86.34c0.03,4.64-1.34,5.89-5.87,5.77c-11.36-0.31-22.73-0.2-34.09-0.04
				c-3.31,0.05-4.7-0.96-4.44-4.38c0.22-2.92,0.11-5.87,0-8.79c-0.04-1.18,0.69-2.78-0.78-3.46c-1.42-0.66-2.3,0.74-3.24,1.53
				c-10.47,8.76-22.37,14.56-35.82,16.95c-26.44,4.69-49.9-2.29-70.03-19.51c-51.76-44.3-42.5-132.25,20.54-161.23
				c29.8-13.7,58.45-10.34,84.69,9.96c1.11,0.86,2.09,2.65,3.62,2.02c1.93-0.8,0.98-2.91,1.01-4.42
				c0.25-12.19,0.22-12.19,12.59-12.19c8.43,0,16.88,0.26,25.29-0.1c4.89-0.21,6.59,1.05,6.54,6.31
				C880.67,185.17,880.81,213.59,880.81,242z M835.97,242.43c0-6.78,0-13.56,0-20.35c0-2.21,0.08-4.45-1.08-6.43
				c-13.16-22.42-39.26-34.89-64.88-22.85c-22.04,10.36-34.32,35.08-28.85,61.32c7.39,35.46,44.54,52.96,74.48,34.46
				c12.95-8,22.93-18.42,20.39-35.72C835.54,249.46,835.97,245.91,835.97,242.43z"/>
		</g>
		<g>
			<path class="st0" d="M913.79,242.25c-0.13-44.64,30.89-83.57,74.11-93.03c35.65-7.8,74.23,7.49,95.17,37.52
				c2.13,3.05,1.9,4.44-1.29,6.27c-10.64,6.1-21.21,12.35-31.66,18.77c-3.05,1.87-4.61,1.32-6.73-1.43
				c-6.77-8.8-15.38-15.17-26.39-17.67c-18.62-4.22-36.54,3.58-47.73,20.56c-16.5,25.04-8.47,59.2,17.39,74.05
				c18.33,10.53,42.06,5.58,55.55-12.02c2.92-3.8,4.96-4.16,8.86-1.74c9.95,6.19,20.05,12.15,30.28,17.86
				c3.81,2.13,3.81,3.79,1.33,7.06c-21.41,28.31-49.97,42.11-85.08,38.2c-38.06-4.24-64.05-25.93-78.1-61.56
				C915.38,264.61,913.72,253.55,913.79,242.25z"/>
		</g>
		<g>
			<path class="st0" d="M1130.89,240.64c0-13.75-0.11-27.5,0.07-41.24c0.05-4.07-1.32-5.52-5.41-5.37
				c-7.14,0.26-14.3-0.04-21.44,0.11c-3.35,0.07-4.5-1.24-4.47-4.53c0.12-11.73,0.12-23.46,0-35.19c-0.03-3.17,1.3-4.19,4.25-4.16
				c6.96,0.08,13.95-0.26,20.89,0.11c4.97,0.27,6.36-1.67,6.2-6.36c-0.29-8.06,0.06-16.13-0.14-24.19
				c-0.08-3.34,1.25-5.39,3.85-7.28c12-8.73,23.87-17.62,35.83-26.4c1.23-0.9,2.43-2.84,4.15-1.8c1.3,0.79,0.64,2.71,0.65,4.13
				c0.03,18.7,0.17,37.4-0.08,56.09c-0.06,4.67,1.47,5.87,5.95,5.8c16.49-0.23,32.99,0,49.49-0.15c4.15-0.04,5.16,0.92,3.44,4.99
				c-4.89,11.63-9.55,23.36-14.1,35.13c-1.18,3.04-2.86,4.08-6.1,4.02c-11.18-0.23-22.36-0.05-33.54-0.29
				c-3.69-0.08-5.15,0.85-5.12,4.86c0.18,21.63-0.04,43.26,0.14,64.89c0.12,14.81,8.31,23.41,23.16,24.81
				c4.74,0.45,9.51,0.8,14.26,0.86c3.34,0.04,4.46,1.35,4.42,4.62c-0.13,11.91-0.05,23.83-0.05,35.74c0,2.06,0.19,4.14-2.89,4.15
				c-17.05,0.07-34.14,0.46-50.45-5.82c-21.2-8.16-30.51-24.98-32.17-46.34c-1.06-13.66-0.2-27.47-0.2-41.22
				C1131.28,240.64,1131.09,240.64,1130.89,240.64z"/>
		</g>
		<g>
			<path class="st0" d="M76.25,242.13c0-28.59,0.09-57.17-0.1-85.76c-0.03-4.56,1.25-6.04,5.85-5.92
				c11.17,0.3,22.35,0.22,33.53,0.03c3.84-0.06,5.05,1.28,5.05,5.09c-0.09,57.9-0.09,115.81,0,173.71c0.01,4.03-1.26,5.51-5.35,5.44
				c-11.17-0.2-22.36-0.21-33.53,0c-4.34,0.08-5.57-1.47-5.54-5.74C76.33,300.03,76.25,271.08,76.25,242.13z"/>
		</g>
		<g>
			<path class="st0" d="M98.35,78.33c18.91,0.09,32.1,16.76,26.42,33.36c-4.11,11.98-19.23,19.6-32.93,16.59
				c-14.37-3.15-22.66-14.21-21.11-28.15C72.07,88.04,84.46,78.26,98.35,78.33z"/>
		</g>
	</g>
	<g class="st1">
		<g>
			<path class="st0" d="M139.35,598.94c7.66-22.31,14.88-43.32,22.09-64.34c7.79-22.72,15.63-45.41,23.25-68.19
				c1.27-3.8,3.16-5.12,7.12-4.93c6.58,0.33,13.2,0.32,19.79,0c3.74-0.18,5.51,1.15,6.71,4.63c14.35,41.75,28.81,83.47,43.26,125.19
				c0.69,2,1.52,3.95,2.28,5.92c2.21-0.34,2.34-2.07,2.74-3.44c11.93-41.1,23.86-82.2,35.71-123.33c2.55-8.84,2.41-8.88,11.36-8.88
				c11.84,0,23.68,0.12,35.51-0.07c4.05-0.07,4.9,0.74,3.54,4.88c-11.24,34.22-22.24,68.52-33.33,102.79
				c-8.7,26.9-17.55,53.75-26.02,80.72c-1.73,5.52-4.28,7.62-10.21,7.34c-11.23-0.52-22.51-0.31-33.76-0.07
				c-4.31,0.09-6.48-1.12-7.92-5.52c-12.17-37.17-24.63-74.24-36.99-111.35c-0.54-1.61-0.52-3.5-3.14-4.45
				c-4.91,14.41-9.81,28.78-14.7,43.15c-8.23,24.2-16.58,48.36-24.56,72.64c-1.45,4.42-3.72,5.6-8,5.52
				c-12.03-0.21-24.07-0.31-36.09,0.04c-4.64,0.13-6.49-1.81-7.77-5.82c-16-49.98-32.1-99.92-48.17-149.88
				c-3.85-11.98-7.54-24.02-11.57-35.95c-1.12-3.31-0.29-4.03,2.89-4.01c13.78,0.09,27.56,0.16,41.34-0.05
				c3.69-0.06,4.41,1.89,5.23,4.73c8.01,27.92,16.13,55.81,24.2,83.72c4.3,14.88,8.55,29.78,12.87,44.65
				C137.3,595.65,138.05,596.58,139.35,598.94z"/>
		</g>
		<g>
			<path class="st0" d="M639.98,630.74c0,6.89-0.28,13.58,0.09,20.24c0.28,4.97-1.06,6.85-6.41,6.65c-11.24-0.42-22.52-0.43-33.76,0
				c-5.51,0.21-7.17-1.16-7.15-6.94c0.23-56.48,0.14-112.95,0.14-169.43c0-27.37,0.07-54.73-0.08-82.1
				c-0.02-3.92,1.16-6.42,4.39-8.67c12.23-8.56,24.25-17.43,36.42-26.08c1.6-1.14,3.06-3.76,5.38-2.39
				c1.82,1.08,0.95,3.57,0.95,5.43c0.04,34.55,0.03,69.09,0.03,103.64c0,1.75-0.08,3.5,0.03,5.24c0.09,1.48-0.67,3.42,0.93,4.29
				c1.76,0.96,2.69-1.01,3.8-1.91c8.68-7.05,18.21-12.67,29.05-15.44c37.68-9.62,69.14,1.51,93.92,30.55
				c40.19,47.1,28.55,121.74-23.95,153.82c-24.28,14.83-50.28,18.84-77.09,6.16c-9.12-4.32-16.21-11.22-22.15-19.31
				c-0.8-1.09-1.57-2.21-2.43-3.26C641.91,631.01,641.41,631.05,639.98,630.74z M640.62,559.85c0,7.57-0.01,15.13,0.01,22.7
				c0,1.93-0.1,3.9,0.94,5.66c12.29,20.73,35.4,34.56,61.08,27.04c27.54-8.05,44.19-36.51,38.41-65.89
				c-4.49-22.8-17.67-38.89-40.59-44.65c-22.63-5.68-40.48,3.52-54.68,21.05c-3.68,4.54-5.7,9.41-5.26,15.46
				C640.96,547.41,640.62,553.64,640.62,559.85z"/>
		</g>
		<g>
			<path class="st0" d="M485.98,575.6c-21.93,0-43.86,0.04-65.79-0.04c-3.64-0.01-5.61,0.03-4.5,4.99
				c6.88,30.67,43.31,45.62,71.95,29.33c6-3.41,11.16-7.8,15.12-13.39c2.11-2.99,3.71-3.66,7-1.55
				c9.29,5.98,18.71,11.76,28.28,17.28c3.85,2.22,4.09,3.87,1.52,7.52c-42.43,60.35-133.46,52.88-166.27-13.73
				c-27.72-56.28-0.7-122.25,58.04-141.68c46.75-15.47,100.56,9.97,118.86,56c6.36,16,8.82,32.39,7.29,49.55
				c-0.41,4.57-1.85,5.84-6.28,5.8C529.45,575.5,507.71,575.6,485.98,575.6z M460.97,543.58c13.76,0,27.52-0.05,41.28,0.03
				c3.52,0.02,5.28-0.22,3.97-4.79c-5.16-17.99-16.55-29.27-34.7-33.79c-24.16-6.02-50.17,9.81-55.67,33.59
				c-0.95,4.12-0.11,5.05,3.85,5.01C433.45,543.49,447.21,543.58,460.97,543.58z"/>
		</g>
		<g>
			<g>
				<g>
					<path class="st0" d="M1600.94,526.5c0,41.52-0.08,83.04,0.11,124.55c0.02,4.96-1.03,6.77-6.36,6.57
						c-11.62-0.43-23.28-0.37-34.91-0.02c-4.79,0.15-6.2-1.54-5.74-5.98c0.28-2.69,0.14-5.43,0.01-8.14
						c-0.06-1.23,0.75-2.92-0.94-3.58c-1.23-0.48-2.1,0.63-2.98,1.37c-41.76,35.4-102.86,20.8-131.51-24.29
						c-28.76-45.27-18.72-105.57,23.42-138.53c31.93-24.97,75.24-24.84,107.11,0.29c1.17,0.92,2.21,2.81,3.84,2.13
						c2.04-0.85,1.06-3.09,1.06-4.68c0.06-25.03,0.15-50.05-0.05-75.08c-0.04-4.57,1.24-6.09,5.91-5.96
						c11.63,0.3,23.28,0.32,34.92,0c4.85-0.13,6.24,1.38,6.22,6.22C1600.87,443.08,1600.94,484.79,1600.94,526.5z M1553.46,560.39
						c0-7.18,0-14.36,0-21.54c0-2.33,0.05-4.68-1.2-6.79c-14.59-24.78-43.85-37.24-70.8-22.91c-21.21,11.28-32.95,35.08-28.7,61.01
						c3.81,23.26,17.22,39.54,40.31,45.43c21.34,5.43,39.23-2.15,53.39-18.8c4.81-5.65,7.88-11.72,7.1-19.54
						C1553.01,571.68,1553.46,566.01,1553.46,560.39z"/>
				</g>
				<g>
					<path class="st0" d="M1784.97,593.02c-18.36-24.36-11.17-63.29,14.56-78.79c23.75-14.31,53.33-6.13,66.42,18.36
						c3.75,7.01,6.34,14.31,7.19,22.11c14.08,0.57,27.81,3.9,41.71,6.12c2.79,0.44,5.57,0.88,8.36,1.32c0-0.25,0.02-0.5,0.02-0.74
						c0.42-55.59-44.28-101.47-99.04-101.64c-54.66-0.17-98.94,44.77-99.19,100.66c-0.15,35.03,17.63,66.06,44.54,84.09
						c8.14-13.97,16.22-27.97,24.69-41.74C1790.89,599.99,1787.77,596.74,1784.97,593.02z"/>
				</g>
				<g>
					<path class="st0" d="M1319.98,634.44c-3.26,0.56-3.93,2.58-5.08,4c-16.14,19.76-37.53,25.04-61.65,21.83
						c-35.61-4.75-47.59-30.24-51.76-58.35c-2.86-19.28-1.89-38.73-1.97-58.12c-0.11-24.84,0.1-49.68-0.14-74.52
						c-0.05-4.95,1.53-6.23,6.28-6.11c11.63,0.32,23.29,0.3,34.92,0.01c4.58-0.12,5.99,1.25,5.96,5.89
						c-0.17,31.44-0.09,62.87-0.06,94.31c0.01,9.33,0.3,18.68,2.67,27.73c6.61,25.28,27.5,33.77,50.32,20.69
						c7.36-4.22,13.1-10.22,18.61-16.53c2.18-2.49,1.87-5.38,1.87-8.26c0.01-38.81,0.14-77.62-0.13-116.43
						c-0.04-5.94,1.57-7.69,7.5-7.45c11.62,0.47,23.28,0.26,34.92,0.07c3.84-0.06,4.99,1.3,4.98,5.05
						c-0.09,61.52-0.08,123.03-0.01,184.55c0,3.42-0.93,4.8-4.59,4.74c-12.61-0.19-25.23-0.2-37.84,0.01
						c-4,0.07-4.99-1.56-4.87-5.17C1320.13,646.5,1319.98,640.59,1319.98,634.44z"/>
				</g>
				<g>
					<path class="st0" d="M945,459.88c22,0.95,43.77,3.03,63.33,14.57c11.24,6.63,11.25,6.86,3.91,17.56
						c-4.39,6.4-8.88,12.72-13.17,19.19c-1.76,2.65-3.05,3.03-5.94,1.07c-21.96-14.86-45.33-14.89-69.37-5.89
						c-1.95,0.73-3.75,2.06-5.41,3.38c-7.03,5.57-7.18,12.34-0.19,18.01c8.69,7.05,19.16,9.9,29.87,12.09
						c17.75,3.63,34.93,8.81,50.37,18.69c16.09,10.3,25.02,24.64,24.18,44.13c-0.93,21.56-10.28,38.94-30.26,47.35
						c-44.02,18.54-86.7,14.92-126.59-12.23c-9.55-6.5-9.22-6.96-2.76-16.58c4.54-6.76,9.12-13.5,13.53-20.34
						c1.79-2.77,3.17-3.83,6.27-1.21c21.59,18.29,46.43,22.83,73.61,16.87c4.78-1.05,9.24-2.98,13.11-6
						c8.13-6.36,8.57-16.05,0.88-23.05c-8.07-7.35-18.33-9.74-28.63-11.85c-17.46-3.58-34.89-6.99-51-15.34
						c-34.52-17.89-32.17-56.79-11.94-77.54c15.41-15.82,35.09-21.34,56.32-22.86C938.39,459.68,941.7,459.88,945,459.88z"/>
				</g>
				<g>
					<path class="st0" d="M1116.17,550.29c0.01,10.87-0.12,21.73,0.04,32.6c0.23,16.03,8.78,25.13,24.83,26.58
						c5.02,0.46,10.06,0.8,15.1,0.9c3.26,0.06,4.4,1.36,4.37,4.57c-0.11,12.8-0.07,25.61-0.03,38.42c0.01,2.38-0.22,4.15-3.33,4.15
						c-18.05,0.01-36.12,0.43-53.38-6.3c-22.68-8.85-32.42-26.98-33.9-49.78c-1.82-27.88-0.45-55.86-0.67-83.79
						c-0.07-8.26-0.02-8.26-8.2-8.26c-6.6,0-13.2-0.15-19.79,0.05c-3.7,0.11-5.23-1.12-5.18-4.99c0.16-12.22,0.15-24.45,0-36.67
						c-0.04-3.52,1.2-4.88,4.71-4.81c7.56,0.14,15.14-0.15,22.7,0.1c4.25,0.14,5.92-1.27,5.81-5.63
						c-0.23-8.92,0.04-17.85-0.11-26.77c-0.05-3.22,1-5.39,3.65-7.32c12.86-9.35,25.58-18.88,38.37-28.32
						c1.2-0.89,2.45-2.58,3.97-1.86c1.92,0.91,0.99,3.12,0.99,4.74c0.06,19.4,0.27,38.81-0.1,58.2c-0.11,5.8,1.79,7.11,7.25,7.01
						c17.07-0.33,34.15,0,51.22-0.2c4.77-0.06,5.68,1.13,3.81,5.58c-5.11,12.13-9.94,24.38-14.7,36.65
						c-1.31,3.39-3.2,4.62-6.89,4.52c-11.25-0.3-22.51,0.04-33.75-0.35c-5.12-0.17-7.16,0.99-6.93,6.63
						C1116.49,527.38,1116.16,538.85,1116.17,550.29z"/>
				</g>
				<g>
					<path class="st0" d="M1645.58,560.7c0-30.26,0.15-60.52-0.13-90.78c-0.05-5.55,1.77-6.89,6.96-6.74
						c11.43,0.34,22.89,0.24,34.33,0.03c4.12-0.08,5.84,0.94,5.83,5.48c-0.13,61.3-0.12,122.59-0.01,183.89
						c0.01,4.38-1.53,5.73-5.75,5.66c-11.83-0.2-23.67-0.25-35.49,0.02c-4.77,0.11-5.84-1.81-5.81-6.19
						C1645.65,621.61,1645.58,591.16,1645.58,560.7z"/>
				</g>
			</g>
			<g>
				<path class="st0" d="M1667.5,446.55c-16.56-0.16-29.38-11.99-29.11-26.86c0.27-15.11,13.6-26.86,30.16-26.6
					c15.92,0.25,29.32,12.85,29.07,27.34C1697.36,434.92,1683.78,446.71,1667.5,446.55z"/>
			</g>
		</g>
	</g>
	<g>
		<path class="st0" d="M1831.98,639.7c-7.99-18.16-15.99-36.33-23.98-54.5c-1.49-3.39-3.16-6.72-4.4-10.2
			c-3.34-9.37,0.45-17.97,9.39-21.72c8.7-3.66,17.94-0.19,22.12,8.54c2.99,6.25,5.79,12.6,8.43,19.01c1.17,2.83,2.23,3.55,5.04,1.68
			c5.75-3.83,11.87-3.86,17.64-0.1c2.49,1.62,3.93,1.05,6.04-0.5c6.38-4.67,13.02-4.61,19.17,0.33c2.58,2.07,3.99,1.45,6.49-0.13
			c9.16-5.79,18.51-2.64,23.85,6.95c14.78,26.54,21.77,55.43,26.19,85.11c1.6,10.72-3.1,19.32-12.88,23.73
			c-14.56,6.56-29.15,13.04-43.84,19.29c-10.76,4.58-18.99,2.71-27-5.99c-14.4-15.62-32.55-26.76-48.27-40.8
			c-5-4.47-10.42-8.56-14.92-13.49c-4.36-4.77-5.02-10.85-2.44-16.88c2.66-6.21,7.82-8.79,14.36-9.26c3.23-0.23,5.92,0.85,8.43,2.61
			c3.19,2.24,6.3,4.59,9.45,6.9C1831.21,640.09,1831.59,639.9,1831.98,639.7z M1936.44,660.22c-1.28-9.69-3.91-19.09-6.41-28.48
			c-3.7-13.96-10.96-26.45-17.12-39.37c-1.69-3.54-5.06-5.03-8.78-3.32c-4.11,1.89-4.58,5.45-3.01,9.4
			c1.03,2.58,1.94,5.21,3.19,7.68c1.6,3.16,2.83,6.34-1.38,8.13c-4.26,1.81-5.65-1.7-6.99-4.71c-2.44-5.48-4.66-11.07-7.26-16.47
			c-1.85-3.83-4.79-6.66-9.43-4.54c-4.5,2.05-4.72,5.94-3,10.02c2.34,5.54,4.94,10.96,7.25,16.51c1.21,2.92,3.12,6.38-1.31,8.25
			c-4.18,1.76-5.81-1.53-7.15-4.55c-3.56-8.02-6.97-16.11-10.51-24.14c-1.89-4.28-4.96-7.25-9.79-5.05
			c-4.82,2.2-4.49,6.39-2.59,10.68c3.66,8.24,7.35,16.48,10.82,24.8c1.14,2.74,2.32,6.15-1.71,7.66c-3.71,1.4-5.26-1.18-6.58-4.26
			c-4.75-11.03-9.7-21.99-14.56-32.98c-4.31-9.73-8.48-19.52-12.97-29.16c-2.12-4.55-6.05-6.76-10.87-4.59
			c-4.31,1.94-5.73,5.79-4,10.4c0.73,1.95,1.64,3.83,2.48,5.73c10.9,24.76,21.84,49.49,32.63,74.3c1.19,2.74,3.84,5.94,0.42,8.86
			c-3.75,3.21-6.54-0.11-9.12-2.12c-7.12-5.56-14-11.43-21.06-17.06c-2.21-1.77-4.74-3.12-7.63-1.29c-2.56,1.61-4.03,4.02-3.59,7
			c0.38,2.57,2.3,4.35,4.22,6.14c20.19,18.78,43.91,33.4,62.87,53.63c3.51,3.74,8.25,4.07,12.89,2.06
			c14.85-6.42,29.69-12.85,44.45-19.49c6.13-2.76,9.13-7.58,7.95-14.56C1937.93,670.31,1937.22,665.26,1936.44,660.22z"/>
		<path class="st0" d="M1880.67,721.38c-6.45,0-12.17-2.95-17.74-8.99c-8.63-9.37-18.86-17.28-28.75-24.93
			c-6.47-5.01-13.17-10.19-19.4-15.75c-1.55-1.39-3.14-2.73-4.73-4.08c-3.51-2.98-7.15-6.06-10.32-9.53
			c-4.67-5.1-5.67-11.94-2.75-18.75c2.69-6.28,8.02-9.75,15.84-10.32c3.34-0.24,6.38,0.69,9.56,2.92c2.12,1.49,4.2,3.02,6.28,4.56
			l-22.27-50.61c-0.43-0.99-0.88-1.97-1.34-2.96c-1.09-2.38-2.21-4.83-3.11-7.36c-3.63-10.18,0.53-19.79,10.36-23.92
			c9.58-4.03,19.84-0.07,24.37,9.4c2.88,6.01,5.65,12.25,8.47,19.1c0.58,1.41,0.9,1.62,0.94,1.64c-0.01-0.01,0.37,0.01,1.52-0.76
			c6.28-4.19,13.23-4.23,19.56-0.12c1.55,1.01,2.16,0.95,4.05-0.44c7.02-5.14,14.58-5.01,21.3,0.37c1.67,1.35,2.17,1.2,4.46-0.25
			c4.63-2.93,9.5-3.85,14.09-2.68c4.96,1.26,9.18,4.81,12.22,10.26c12.86,23.1,21,49.53,26.39,85.7
			c1.71,11.51-3.35,20.83-13.89,25.58c-17.64,7.95-31.17,13.9-43.87,19.31C1887.88,720.51,1884.17,721.38,1880.67,721.38z
			 M1813.81,632.49c-0.24,0-0.49,0.01-0.73,0.03c-6.59,0.48-10.69,3.08-12.88,8.21c-2.39,5.58-1.64,10.91,2.12,15.01
			c3.02,3.31,6.57,6.32,10,9.22c1.61,1.37,3.22,2.73,4.8,4.14c6.14,5.48,12.78,10.63,19.21,15.6c10,7.74,20.35,15.74,29.18,25.32
			c7.52,8.16,15.01,9.83,25.03,5.56c12.68-5.4,26.19-11.34,43.81-19.28c9.14-4.12,13.36-11.89,11.87-21.88
			c-5.32-35.73-13.34-61.8-25.99-84.51c-2.56-4.59-6.03-7.56-10.03-8.58c-3.64-0.93-7.56-0.15-11.37,2.25
			c-2.7,1.71-5.04,2.8-8.51,0.02c-5.51-4.43-11.25-4.52-17.04-0.28c-2.11,1.55-4.47,2.86-8.02,0.55
			c-5.15-3.36-10.59-3.32-15.71,0.09c-1.22,0.81-2.84,1.69-4.49,1.19c-1.63-0.5-2.47-2.05-3.13-3.65
			c-2.8-6.78-5.54-12.97-8.39-18.92c-3.76-7.86-11.93-11.02-19.87-7.69c-8.13,3.41-11.43,11.08-8.42,19.52
			c0.85,2.39,1.95,4.77,3,7.08c0.46,1,0.91,2,1.36,3.01l24.64,56l-3.58,1.82l-3.7-2.72c-2.18-1.62-4.37-3.23-6.59-4.79
			C1818.13,633.24,1816.03,632.49,1813.81,632.49z M1880.95,712.35c-3.33,0-6.36-1.29-8.73-3.83
			c-10.8-11.52-23.41-21.41-35.61-30.98c-9.11-7.14-18.53-14.52-27.17-22.57c-2.02-1.87-4.29-3.99-4.76-7.16
			c-0.52-3.52,1.04-6.62,4.39-8.74c4.42-2.78,8.22,0.26,9.66,1.4c3.01,2.4,5.99,4.85,8.97,7.3c3.94,3.23,8.01,6.57,12.08,9.75
			c0.36,0.28,0.73,0.59,1.1,0.9c2.67,2.24,3.87,2.93,5.81,1.27c1.63-1.39,1.26-2.56-0.14-5.29c-0.27-0.53-0.53-1.04-0.75-1.54
			c-8.23-18.93-16.55-37.82-24.88-56.71l-8.47-19.2c-0.63-1.39-1.26-2.78-1.79-4.21c-2.06-5.5-0.17-10.33,4.92-12.61
			c5.42-2.43,10.46-0.34,13.16,5.45c3.16,6.79,6.21,13.76,9.16,20.5c1.27,2.9,2.54,5.8,3.82,8.69l4.22,9.49
			c3.48,7.82,6.96,15.64,10.35,23.5c1.56,3.62,2.5,4.01,4.37,3.31c1.22-0.46,1.45-0.99,1.52-1.17c0.48-1.1-0.36-3.11-0.81-4.19
			c-3.11-7.48-6.47-15.02-9.71-22.31l-1.09-2.45c-3.49-7.83-0.05-11.38,3.46-12.98c2.27-1.03,4.41-1.19,6.36-0.44
			c2.35,0.89,4.28,3.04,5.75,6.37c1.62,3.68,3.22,7.38,4.82,11.07c1.88,4.36,3.77,8.72,5.7,13.06c1.72,3.87,2.68,4.59,4.87,3.65
			c0.87-0.37,1.41-0.79,1.6-1.27c0.38-0.94-0.32-2.58-0.94-4.02l-0.29-0.68c-1.21-2.92-2.51-5.8-3.8-8.69
			c-1.17-2.6-2.33-5.19-3.44-7.81c-2.36-5.61-0.95-10.09,3.89-12.3c2.8-1.27,8.04-2.27,11.72,5.38c1.67,3.47,3.21,7.05,4.69,10.52
			c0.86,2.01,1.71,4.01,2.6,6l0.12,0.28c1.61,3.64,2.37,4.48,4.59,3.53c0.94-0.4,1.52-0.87,1.71-1.4c0.36-1-0.36-2.67-1.21-4.34
			c-0.98-1.93-1.75-3.95-2.5-5.9l-0.75-1.93c-2.11-5.29-0.68-9.53,3.9-11.64c4.46-2.05,8.93-0.38,11.09,4.16
			c1.44,3.03,2.95,6.04,4.45,9.05c4.87,9.73,9.9,19.78,12.77,30.63l0.68,2.53c2.25,8.47,4.59,17.23,5.77,26.15l0.71,4.69
			c0.52,3.46,1.04,6.93,1.62,10.38c1.28,7.55-1.82,13.23-8.95,16.45c-14.79,6.66-29.48,13.02-44.47,19.5
			C1884.98,711.9,1882.92,712.35,1880.95,712.35z M1812.8,641.44c-0.64,0-1.24,0.2-1.87,0.6c-2.17,1.37-3.11,3.14-2.79,5.27
			c0.29,1.96,1.93,3.49,3.67,5.1c8.55,7.95,17.91,15.29,26.96,22.39c12.3,9.65,25.03,19.62,36.01,31.34
			c3.51,3.75,7.88,2.97,10.92,1.65c14.98-6.47,29.65-12.83,44.42-19.48c5.68-2.56,7.95-6.71,6.94-12.68
			c-0.59-3.47-1.11-6.96-1.64-10.45l-0.71-4.73c-1.15-8.7-3.46-17.36-5.69-25.72l-0.67-2.54c-2.78-10.5-7.73-20.39-12.52-29.96
			c-1.52-3.03-3.03-6.06-4.48-9.11c-1.34-2.8-3.75-3.74-6.48-2.48c-1.8,0.83-3.99,2.47-2.11,7.17c0.26,0.65,0.51,1.31,0.77,1.96
			c0.75,1.96,1.47,3.81,2.36,5.58c1.11,2.2,2.23,4.75,1.37,7.11c-0.54,1.47-1.76,2.62-3.63,3.41c-5.71,2.43-7.86-2.43-9.15-5.33
			l-0.12-0.28c-0.89-2.01-1.76-4.03-2.62-6.05c-1.46-3.43-2.98-6.98-4.62-10.37c-2.44-5.06-5.09-4.65-7.13-3.71
			c-1.94,0.88-4.27,2.65-2.12,7.76c1.09,2.59,2.25,5.16,3.41,7.74c1.31,2.91,2.62,5.83,3.84,8.78l0.28,0.65
			c0.84,1.97,1.89,4.41,0.96,6.7c-0.55,1.37-1.72,2.44-3.48,3.18c-5.91,2.49-8.28-2.88-9.42-5.45c-1.93-4.35-3.82-8.72-5.71-13.1
			c-1.59-3.69-3.19-7.38-4.81-11.05c-1.06-2.41-2.38-3.97-3.8-4.52c-1.05-0.4-2.26-0.29-3.66,0.35c-2.24,1.02-4.19,2.81-1.71,8.38
			l1.09,2.45c3.25,7.31,6.61,14.87,9.74,22.39c0.9,2.16,1.77,4.65,0.79,6.92c-0.6,1.37-1.77,2.4-3.5,3.05
			c-5.64,2.12-7.86-3.01-8.8-5.2c-3.38-7.85-6.86-15.66-10.33-23.47l-4.22-9.5c-1.28-2.9-2.55-5.8-3.82-8.7
			c-2.94-6.72-5.99-13.67-9.13-20.42c-1.09-2.34-3.66-5.95-8.57-3.74c-4.35,1.95-4.08,5.53-3.08,8.2c0.51,1.35,1.11,2.67,1.71,3.99
			l0.74,1.64l7.75,17.59c8.33,18.89,16.65,37.79,24.89,56.72c0.19,0.44,0.42,0.88,0.66,1.34c1.19,2.33,3.18,6.23-0.7,9.54
			c-4.38,3.74-8.1,0.62-10.33-1.25c-0.34-0.28-0.67-0.56-1-0.82c-4.11-3.21-8.2-6.56-12.15-9.81c-2.97-2.44-5.93-4.87-8.93-7.27
			C1815.04,642.01,1813.88,641.44,1812.8,641.44z"/>
	</g>
</g>
</svg>
