<svg id="visual" viewBox="0 0 960 540" width="960" height="540" xmlns="http://www.w3.org/2000/svg" xmlns:xlink="http://www.w3.org/1999/xlink" version="1.1"><rect x="0" y="0" width="960" height="540" fill="#ffffff"></rect><path d="M0 187L26.7 190.7C53.3 194.3 106.7 201.7 160 204.3C213.3 207 266.7 205 320 191.3C373.3 177.7 426.7 152.3 480 144.5C533.3 136.7 586.7 146.3 640 158.2C693.3 170 746.7 184 800 185.5C853.3 187 906.7 176 933.3 170.5L960 165L960 541L933.3 541C906.7 541 853.3 541 800 541C746.7 541 693.3 541 640 541C586.7 541 533.3 541 480 541C426.7 541 373.3 541 320 541C266.7 541 213.3 541 160 541C106.7 541 53.3 541 26.7 541L0 541Z" fill="#a7c7e7"></path><path d="M0 404L26.7 395.8C53.3 387.7 106.7 371.3 160 372.3C213.3 373.3 266.7 391.7 320 401C373.3 410.3 426.7 410.7 480 394.5C533.3 378.3 586.7 345.7 640 337.7C693.3 329.7 746.7 346.3 800 355C853.3 363.7 906.7 364.3 933.3 364.7L960 365L960 541L933.3 541C906.7 541 853.3 541 800 541C746.7 541 693.3 541 640 541C586.7 541 533.3 541 480 541C426.7 541 373.3 541 320 541C266.7 541 213.3 541 160 541C106.7 541 53.3 541 26.7 541L0 541Z" fill="#181818"></path></svg>