<svg id="visual" viewBox="0 0 900 675" width="900" height="675" xmlns="http://www.w3.org/2000/svg" xmlns:xlink="http://www.w3.org/1999/xlink" version="1.1"><rect x="0" y="0" width="900" height="675" fill="#ffffff"></rect><path d="M0 54L37.5 51.2C75 48.3 150 42.7 225 50.8C300 59 375 81 450 88.7C525 96.3 600 89.7 675 78.7C750 67.7 825 52.3 862.5 44.7L900 37L900 676L862.5 676C825 676 750 676 675 676C600 676 525 676 450 676C375 676 300 676 225 676C150 676 75 676 37.5 676L0 676Z" fill="#a7c7e7"></path><path d="M0 132L37.5 145C75 158 150 184 225 182C300 180 375 150 450 141.7C525 133.3 600 146.7 675 162.8C750 179 825 198 862.5 207.5L900 217L900 676L862.5 676C825 676 750 676 675 676C600 676 525 676 450 676C375 676 300 676 225 676C150 676 75 676 37.5 676L0 676Z" fill="#a7c7e7"></path><path d="M0 302L37.5 293.3C75 284.7 150 267.3 225 251.2C300 235 375 220 450 215C525 210 600 215 675 214.7C750 214.3 825 208.7 862.5 205.8L900 203L900 676L862.5 676C825 676 750 676 675 676C600 676 525 676 450 676C375 676 300 676 225 676C150 676 75 676 37.5 676L0 676Z" fill="#a7c7e7"></path><path d="M0 333L37.5 336.2C75 339.3 150 345.7 225 341C300 336.3 375 320.7 450 313.7C525 306.7 600 308.3 675 320.8C750 333.3 825 356.7 862.5 368.3L900 380L900 676L862.5 676C825 676 750 676 675 676C600 676 525 676 450 676C375 676 300 676 225 676C150 676 75 676 37.5 676L0 676Z" fill="#a7c7e7"></path><path d="M0 468L37.5 461.8C75 455.7 150 443.3 225 443.3C300 443.3 375 455.7 450 447.8C525 440 600 412 675 395.2C750 378.3 825 372.7 862.5 369.8L900 367L900 676L862.5 676C825 676 750 676 675 676C600 676 525 676 450 676C375 676 300 676 225 676C150 676 75 676 37.5 676L0 676Z" fill="#a7c7e7"></path><path d="M0 482L37.5 493C75 504 150 526 225 538.2C300 550.3 375 552.7 450 544.3C525 536 600 517 675 501C750 485 825 472 862.5 465.5L900 459L900 676L862.5 676C825 676 750 676 675 676C600 676 525 676 450 676C375 676 300 676 225 676C150 676 75 676 37.5 676L0 676Z" fill="#a7c7e7"></path><path d="M0 625L37.5 621.7C75 618.3 150 611.7 225 607.5C300 603.3 375 601.7 450 600.5C525 599.3 600 598.7 675 602.5C750 606.3 825 614.7 862.5 618.8L900 623L900 676L862.5 676C825 676 750 676 675 676C600 676 525 676 450 676C375 676 300 676 225 676C150 676 75 676 37.5 676L0 676Z" fill="#181818"></path></svg>