<svg id="visual" viewBox="0 0 1440 800" width="1440" height="800" xmlns="http://www.w3.org/2000/svg" xmlns:xlink="http://www.w3.org/1999/xlink" version="1.1"><rect x="0" y="0" width="1440" height="800" fill="#ffffff"></rect><path d="M0 278L40 283.3C80 288.7 160 299.3 240 303.3C320 307.3 400 304.7 480 284.5C560 264.3 640 226.7 720 214.8C800 203 880 217 960 234.5C1040 252 1120 273 1200 275.5C1280 278 1360 262 1400 254L1440 246L1440 801L1400 801C1360 801 1280 801 1200 801C1120 801 1040 801 960 801C880 801 800 801 720 801C640 801 560 801 480 801C400 801 320 801 240 801C160 801 80 801 40 801L0 801Z" fill="#a7c7e7"></path><path d="M0 599L40 586.8C80 574.7 160 550.3 240 551.8C320 553.3 400 580.7 480 594.5C560 608.3 640 608.7 720 584.7C800 560.7 880 512.3 960 500.5C1040 488.7 1120 513.3 1200 526.2C1280 539 1360 540 1400 540.5L1440 541L1440 801L1400 801C1360 801 1280 801 1200 801C1120 801 1040 801 960 801C880 801 800 801 720 801C640 801 560 801 480 801C400 801 320 801 240 801C160 801 80 801 40 801L0 801Z" fill="#181818"></path></svg>