<svg id="visual" viewBox="0 0 1440 520" width="1440" height="520" xmlns="http://www.w3.org/2000/svg" xmlns:xlink="http://www.w3.org/1999/xlink" version="1.1"><rect x="0" y="0" width="1440" height="520" fill="#ffffff"></rect><path d="M0 31L40 27.8C80 24.7 160 18.3 240 21.3C320 24.3 400 36.7 480 48.7C560 60.7 640 72.3 720 71.7C800 71 880 58 960 56.7C1040 55.3 1120 65.7 1200 71C1280 76.3 1360 76.7 1400 76.8L1440 77L1440 521L1400 521C1360 521 1280 521 1200 521C1120 521 1040 521 960 521C880 521 800 521 720 521C640 521 560 521 480 521C400 521 320 521 240 521C160 521 80 521 40 521L0 521Z" fill="#a7c7e7"></path><path d="M0 111L40 118.7C80 126.3 160 141.7 240 149.7C320 157.7 400 158.3 480 153C560 147.7 640 136.3 720 129.7C800 123 880 121 960 128.5C1040 136 1120 153 1200 160.2C1280 167.3 1360 164.7 1400 163.3L1440 162L1440 521L1400 521C1360 521 1280 521 1200 521C1120 521 1040 521 960 521C880 521 800 521 720 521C640 521 560 521 480 521C400 521 320 521 240 521C160 521 80 521 40 521L0 521Z" fill="#a7c7e7"></path><path d="M0 121L40 125.3C80 129.7 160 138.3 240 141.8C320 145.3 400 143.7 480 139.8C560 136 640 130 720 130.5C800 131 880 138 960 148.5C1040 159 1120 173 1200 178.7C1280 184.3 1360 181.7 1400 180.3L1440 179L1440 521L1400 521C1360 521 1280 521 1200 521C1120 521 1040 521 960 521C880 521 800 521 720 521C640 521 560 521 480 521C400 521 320 521 240 521C160 521 80 521 40 521L0 521Z" fill="#a7c7e7"></path><path d="M0 283L40 282.8C80 282.7 160 282.3 240 266.8C320 251.3 400 220.7 480 218.7C560 216.7 640 243.3 720 245.8C800 248.3 880 226.7 960 223.2C1040 219.7 1120 234.3 1200 237.2C1280 240 1360 231 1400 226.5L1440 222L1440 521L1400 521C1360 521 1280 521 1200 521C1120 521 1040 521 960 521C880 521 800 521 720 521C640 521 560 521 480 521C400 521 320 521 240 521C160 521 80 521 40 521L0 521Z" fill="#a7c7e7"></path><path d="M0 310L40 306C80 302 160 294 240 295.3C320 296.7 400 307.3 480 304C560 300.7 640 283.3 720 281.5C800 279.7 880 293.3 960 290.5C1040 287.7 1120 268.3 1200 274.5C1280 280.7 1360 312.3 1400 328.2L1440 344L1440 521L1400 521C1360 521 1280 521 1200 521C1120 521 1040 521 960 521C880 521 800 521 720 521C640 521 560 521 480 521C400 521 320 521 240 521C160 521 80 521 40 521L0 521Z" fill="#a7c7e7"></path><path d="M0 300L40 300.7C80 301.3 160 302.7 240 310.8C320 319 400 334 480 334C560 334 640 319 720 311.8C800 304.7 880 305.3 960 308.3C1040 311.3 1120 316.7 1200 329.3C1280 342 1360 362 1400 372L1440 382L1440 521L1400 521C1360 521 1280 521 1200 521C1120 521 1040 521 960 521C880 521 800 521 720 521C640 521 560 521 480 521C400 521 320 521 240 521C160 521 80 521 40 521L0 521Z" fill="#a7c7e7"></path><path d="M0 451L40 443.5C80 436 160 421 240 418.5C320 416 400 426 480 430.2C560 434.3 640 432.7 720 425C800 417.3 880 403.7 960 391C1040 378.3 1120 366.7 1200 370.7C1280 374.7 1360 394.3 1400 404.2L1440 414L1440 521L1400 521C1360 521 1280 521 1200 521C1120 521 1040 521 960 521C880 521 800 521 720 521C640 521 560 521 480 521C400 521 320 521 240 521C160 521 80 521 40 521L0 521Z" fill="#a7c7e7"></path><path d="M0 481L40 484C80 487 160 493 240 487.8C320 482.7 400 466.3 480 459.7C560 453 640 456 720 464.7C800 473.3 880 487.7 960 486.5C1040 485.3 1120 468.7 1200 456C1280 443.3 1360 434.7 1400 430.3L1440 426L1440 521L1400 521C1360 521 1280 521 1200 521C1120 521 1040 521 960 521C880 521 800 521 720 521C640 521 560 521 480 521C400 521 320 521 240 521C160 521 80 521 40 521L0 521Z" fill="#181818"></path></svg>