<svg id="visual" viewBox="0 0 450 300" width="450" height="300" xmlns="http://www.w3.org/2000/svg" xmlns:xlink="http://www.w3.org/1999/xlink" version="1.1"><rect x="0" y="0" width="450" height="300" fill="#ffffff"></rect><path d="M0 104L12.5 106C25 108 50 112 75 113.3C100 114.7 125 113.3 150 105.7C175 98 200 84 225 79.7C250 75.3 275 80.7 300 87.3C325 94 350 102 375 102.8C400 103.7 425 97.3 437.5 94.2L450 91L450 301L437.5 301C425 301 400 301 375 301C350 301 325 301 300 301C275 301 250 301 225 301C200 301 175 301 150 301C125 301 100 301 75 301C50 301 25 301 12.5 301L0 301Z" fill="#a7c7e7"></path><path d="M0 224L12.5 219.5C25 215 50 206 75 206.5C100 207 125 217 150 222.2C175 227.3 200 227.7 225 218.7C250 209.7 275 191.3 300 186.8C325 182.3 350 191.7 375 196.5C400 201.3 425 201.7 437.5 201.8L450 202L450 301L437.5 301C425 301 400 301 375 301C350 301 325 301 300 301C275 301 250 301 225 301C200 301 175 301 150 301C125 301 100 301 75 301C50 301 25 301 12.5 301L0 301Z" fill="#181818"></path></svg>