<svg id="visual" viewBox="0 0 1440 800" width="1440" height="800" xmlns="http://www.w3.org/2000/svg" xmlns:xlink="http://www.w3.org/1999/xlink" version="1.1"><rect x="0" y="0" width="1440" height="800" fill="#ffffff"></rect><path d="M0 58L40 50.5C80 43 160 28 240 29.8C320 31.7 400 50.3 480 73.5C560 96.7 640 124.3 720 138.7C800 153 880 154 960 138.2C1040 122.3 1120 89.7 1200 73.5C1280 57.3 1360 57.7 1400 57.8L1440 58L1440 801L1400 801C1360 801 1280 801 1200 801C1120 801 1040 801 960 801C880 801 800 801 720 801C640 801 560 801 480 801C400 801 320 801 240 801C160 801 80 801 40 801L0 801Z" fill="#ffffff"></path><path d="M0 160L40 173.5C80 187 160 214 240 217.7C320 221.3 400 201.7 480 205.2C560 208.7 640 235.3 720 237.5C800 239.7 880 217.3 960 195C1040 172.7 1120 150.3 1200 148C1280 145.7 1360 163.3 1400 172.2L1440 181L1440 801L1400 801C1360 801 1280 801 1200 801C1120 801 1040 801 960 801C880 801 800 801 720 801C640 801 560 801 480 801C400 801 320 801 240 801C160 801 80 801 40 801L0 801Z" fill="#a7c7e7"></path><path d="M0 206L40 221.5C80 237 160 268 240 285.8C320 303.7 400 308.3 480 306.3C560 304.3 640 295.7 720 297.2C800 298.7 880 310.3 960 315.8C1040 321.3 1120 320.7 1200 314C1280 307.3 1360 294.7 1400 288.3L1440 282L1440 801L1400 801C1360 801 1280 801 1200 801C1120 801 1040 801 960 801C880 801 800 801 720 801C640 801 560 801 480 801C400 801 320 801 240 801C160 801 80 801 40 801L0 801Z" fill="#a7c7e7"></path><path d="M0 343L40 345C80 347 160 351 240 354.3C320 357.7 400 360.3 480 373.2C560 386 640 409 720 398.3C800 387.7 880 343.3 960 341.8C1040 340.3 1120 381.7 1200 386.3C1280 391 1360 359 1400 343L1440 327L1440 801L1400 801C1360 801 1280 801 1200 801C1120 801 1040 801 960 801C880 801 800 801 720 801C640 801 560 801 480 801C400 801 320 801 240 801C160 801 80 801 40 801L0 801Z" fill="#a7c7e7"></path><path d="M0 357L40 371.2C80 385.3 160 413.7 240 438.5C320 463.3 400 484.7 480 496C560 507.3 640 508.7 720 488C800 467.3 880 424.7 960 402.8C1040 381 1120 380 1200 391.3C1280 402.7 1360 426.3 1400 438.2L1440 450L1440 801L1400 801C1360 801 1280 801 1200 801C1120 801 1040 801 960 801C880 801 800 801 720 801C640 801 560 801 480 801C400 801 320 801 240 801C160 801 80 801 40 801L0 801Z" fill="#a7c7e7"></path><path d="M0 504L40 494.3C80 484.7 160 465.3 240 471C320 476.7 400 507.3 480 517.2C560 527 640 516 720 511.3C800 506.7 880 508.3 960 524.8C1040 541.3 1120 572.7 1200 566.5C1280 560.3 1360 516.7 1400 494.8L1440 473L1440 801L1400 801C1360 801 1280 801 1200 801C1120 801 1040 801 960 801C880 801 800 801 720 801C640 801 560 801 480 801C400 801 320 801 240 801C160 801 80 801 40 801L0 801Z" fill="#a7c7e7"></path><path d="M0 557L40 554.3C80 551.7 160 546.3 240 565.2C320 584 400 627 480 632.5C560 638 640 606 720 600.3C800 594.7 880 615.3 960 610.7C1040 606 1120 576 1200 560C1280 544 1360 542 1400 541L1440 540L1440 801L1400 801C1360 801 1280 801 1200 801C1120 801 1040 801 960 801C880 801 800 801 720 801C640 801 560 801 480 801C400 801 320 801 240 801C160 801 80 801 40 801L0 801Z" fill="#181818"></path><path d="M0 741L40 745.7C80 750.3 160 759.7 240 751.7C320 743.7 400 718.3 480 708C560 697.7 640 702.3 720 715.7C800 729 880 751 960 749.2C1040 747.3 1120 721.7 1200 702.2C1280 682.7 1360 669.3 1400 662.7L1440 656L1440 801L1400 801C1360 801 1280 801 1200 801C1120 801 1040 801 960 801C880 801 800 801 720 801C640 801 560 801 480 801C400 801 320 801 240 801C160 801 80 801 40 801L0 801Z" fill="#181818"></path></svg>