<svg id="visual" viewBox="0 0 900 675" width="900" height="675" xmlns="http://www.w3.org/2000/svg" xmlns:xlink="http://www.w3.org/1999/xlink" version="1.1"><rect x="0" y="0" width="900" height="675" fill="#ffffff"></rect><path d="M0 107L18.8 113C37.7 119 75.3 131 112.8 136.3C150.3 141.7 187.7 140.3 225.2 134.3C262.7 128.3 300.3 117.7 337.8 118.5C375.3 119.3 412.7 131.7 450.2 135.7C487.7 139.7 525.3 135.3 562.8 127.2C600.3 119 637.7 107 675.2 113.5C712.7 120 750.3 145 787.8 148.2C825.3 151.3 862.7 132.7 881.3 123.3L900 114L900 676L881.3 676C862.7 676 825.3 676 787.8 676C750.3 676 712.7 676 675.2 676C637.7 676 600.3 676 562.8 676C525.3 676 487.7 676 450.2 676C412.7 676 375.3 676 337.8 676C300.3 676 262.7 676 225.2 676C187.7 676 150.3 676 112.8 676C75.3 676 37.7 676 18.8 676L0 676Z" fill="#a7c7e7"></path><path d="M0 234L18.8 234.2C37.7 234.3 75.3 234.7 112.8 241.3C150.3 248 187.7 261 225.2 262.3C262.7 263.7 300.3 253.3 337.8 258.7C375.3 264 412.7 285 450.2 288.2C487.7 291.3 525.3 276.7 562.8 275C600.3 273.3 637.7 284.7 675.2 291C712.7 297.3 750.3 298.7 787.8 293C825.3 287.3 862.7 274.7 881.3 268.3L900 262L900 676L881.3 676C862.7 676 825.3 676 787.8 676C750.3 676 712.7 676 675.2 676C637.7 676 600.3 676 562.8 676C525.3 676 487.7 676 450.2 676C412.7 676 375.3 676 337.8 676C300.3 676 262.7 676 225.2 676C187.7 676 150.3 676 112.8 676C75.3 676 37.7 676 18.8 676L0 676Z" fill="#a7c7e7"></path><path d="M0 421L18.8 414.8C37.7 408.7 75.3 396.3 112.8 396.2C150.3 396 187.7 408 225.2 411.3C262.7 414.7 300.3 409.3 337.8 403C375.3 396.7 412.7 389.3 450.2 384.7C487.7 380 525.3 378 562.8 387.2C600.3 396.3 637.7 416.7 675.2 424.7C712.7 432.7 750.3 428.3 787.8 429C825.3 429.7 862.7 435.3 881.3 438.2L900 441L900 676L881.3 676C862.7 676 825.3 676 787.8 676C750.3 676 712.7 676 675.2 676C637.7 676 600.3 676 562.8 676C525.3 676 487.7 676 450.2 676C412.7 676 375.3 676 337.8 676C300.3 676 262.7 676 225.2 676C187.7 676 150.3 676 112.8 676C75.3 676 37.7 676 18.8 676L0 676Z" fill="#a7c7e7"></path><path d="M0 554L18.8 548.7C37.7 543.3 75.3 532.7 112.8 526.5C150.3 520.3 187.7 518.7 225.2 523C262.7 527.3 300.3 537.7 337.8 539.3C375.3 541 412.7 534 450.2 537.2C487.7 540.3 525.3 553.7 562.8 554.3C600.3 555 637.7 543 675.2 531.7C712.7 520.3 750.3 509.7 787.8 509.7C825.3 509.7 862.7 520.3 881.3 525.7L900 531L900 676L881.3 676C862.7 676 825.3 676 787.8 676C750.3 676 712.7 676 675.2 676C637.7 676 600.3 676 562.8 676C525.3 676 487.7 676 450.2 676C412.7 676 375.3 676 337.8 676C300.3 676 262.7 676 225.2 676C187.7 676 150.3 676 112.8 676C75.3 676 37.7 676 18.8 676L0 676Z" fill="#181818"></path></svg>