<svg id="visual" viewBox="0 0 900 675" width="900" height="675" xmlns="http://www.w3.org/2000/svg" xmlns:xlink="http://www.w3.org/1999/xlink" version="1.1"><rect x="0" y="0" width="900" height="675" fill="#ffffff"></rect><path d="M0 89L12.5 98.5C25 108 50 127 75 131.3C100 135.7 125 125.3 150 117.2C175 109 200 103 225 97.7C250 92.3 275 87.7 300 91.3C325 95 350 107 375 116.8C400 126.7 425 134.3 450 130.5C475 126.7 500 111.3 525 103.3C550 95.3 575 94.7 600 91.5C625 88.3 650 82.7 675 91C700 99.3 725 121.7 750 121.5C775 121.3 800 98.7 825 96.3C850 94 875 112 887.5 121L900 130L900 676L887.5 676C875 676 850 676 825 676C800 676 775 676 750 676C725 676 700 676 675 676C650 676 625 676 600 676C575 676 550 676 525 676C500 676 475 676 450 676C425 676 400 676 375 676C350 676 325 676 300 676C275 676 250 676 225 676C200 676 175 676 150 676C125 676 100 676 75 676C50 676 25 676 12.5 676L0 676Z" fill="#a7c7e7"></path><path d="M0 245L12.5 237.5C25 230 50 215 75 213.5C100 212 125 224 150 229.3C175 234.7 200 233.3 225 224.8C250 216.3 275 200.7 300 193.7C325 186.7 350 188.3 375 195.8C400 203.3 425 216.7 450 225C475 233.3 500 236.7 525 232C550 227.3 575 214.7 600 214.7C625 214.7 650 227.3 675 235.7C700 244 725 248 750 252.3C775 256.7 800 261.3 825 263.3C850 265.3 875 264.7 887.5 264.3L900 264L900 676L887.5 676C875 676 850 676 825 676C800 676 775 676 750 676C725 676 700 676 675 676C650 676 625 676 600 676C575 676 550 676 525 676C500 676 475 676 450 676C425 676 400 676 375 676C350 676 325 676 300 676C275 676 250 676 225 676C200 676 175 676 150 676C125 676 100 676 75 676C50 676 25 676 12.5 676L0 676Z" fill="#8097ad"></path><path d="M0 338L12.5 337.7C25 337.3 50 336.7 75 333C100 329.3 125 322.7 150 316.2C175 309.7 200 303.3 225 308.7C250 314 275 331 300 336.8C325 342.7 350 337.3 375 336.2C400 335 425 338 450 336.8C475 335.7 500 330.3 525 331C550 331.7 575 338.3 600 333.2C625 328 650 311 675 310.8C700 310.7 725 327.3 750 338.5C775 349.7 800 355.3 825 349.2C850 343 875 325 887.5 316L900 307L900 676L887.5 676C875 676 850 676 825 676C800 676 775 676 750 676C725 676 700 676 675 676C650 676 625 676 600 676C575 676 550 676 525 676C500 676 475 676 450 676C425 676 400 676 375 676C350 676 325 676 300 676C275 676 250 676 225 676C200 676 175 676 150 676C125 676 100 676 75 676C50 676 25 676 12.5 676L0 676Z" fill="#5b6977"></path><path d="M0 431L12.5 440C25 449 50 467 75 462.7C100 458.3 125 431.7 150 431C175 430.3 200 455.7 225 460C250 464.3 275 447.7 300 440.3C325 433 350 435 375 435.8C400 436.7 425 436.3 450 444.5C475 452.7 500 469.3 525 473.7C550 478 575 470 600 457.3C625 444.7 650 427.3 675 431C700 434.7 725 459.3 750 469C775 478.7 800 473.3 825 474.5C850 475.7 875 483.3 887.5 487.2L900 491L900 676L887.5 676C875 676 850 676 825 676C800 676 775 676 750 676C725 676 700 676 675 676C650 676 625 676 600 676C575 676 550 676 525 676C500 676 475 676 450 676C425 676 400 676 375 676C350 676 325 676 300 676C275 676 250 676 225 676C200 676 175 676 150 676C125 676 100 676 75 676C50 676 25 676 12.5 676L0 676Z" fill="#383e45"></path><path d="M0 533L12.5 542.2C25 551.3 50 569.7 75 570.3C100 571 125 554 150 545.8C175 537.7 200 538.3 225 548.8C250 559.3 275 579.7 300 576.3C325 573 350 546 375 544.8C400 543.7 425 568.3 450 573.5C475 578.7 500 564.3 525 555.8C550 547.3 575 544.7 600 546.7C625 548.7 650 555.3 675 563.3C700 571.3 725 580.7 750 584C775 587.3 800 584.7 825 578.5C850 572.3 875 562.7 887.5 557.8L900 553L900 676L887.5 676C875 676 850 676 825 676C800 676 775 676 750 676C725 676 700 676 675 676C650 676 625 676 600 676C575 676 550 676 525 676C500 676 475 676 450 676C425 676 400 676 375 676C350 676 325 676 300 676C275 676 250 676 225 676C200 676 175 676 150 676C125 676 100 676 75 676C50 676 25 676 12.5 676L0 676Z" fill="#181818"></path></svg>