<svg id="visual" viewBox="0 0 1440 800" width="1440" height="800" xmlns="http://www.w3.org/2000/svg" xmlns:xlink="http://www.w3.org/1999/xlink" version="1.1"><rect x="0" y="0" width="1440" height="800" fill="#fff"></rect><path d="M0 440L48 462.2C96 484.3 192 528.7 288 519C384 509.3 480 445.7 576 428.8C672 412 768 442 864 476.3C960 510.7 1056 549.3 1152 538.2C1248 527 1344 466 1392 435.5L1440 405L1440 801L1392 801C1344 801 1248 801 1152 801C1056 801 960 801 864 801C768 801 672 801 576 801C480 801 384 801 288 801C192 801 96 801 48 801L0 801Z" fill="#a7c7e7" stroke-linecap="round" stroke-linejoin="miter"></path></svg>