<svg id="visual" viewBox="0 0 1440 800" width="1440" height="800" xmlns="http://www.w3.org/2000/svg" xmlns:xlink="http://www.w3.org/1999/xlink" version="1.1"><rect x="0" y="0" width="1440" height="800" fill="#fff"></rect><path d="M0 531L40 532.3C80 533.7 160 536.3 240 502.2C320 468 400 397 480 380.8C560 364.7 640 403.3 720 431C800 458.7 880 475.3 960 442.7C1040 410 1120 328 1200 280.5C1280 233 1360 220 1400 213.5L1440 207L1440 801L1400 801C1360 801 1280 801 1200 801C1120 801 1040 801 960 801C880 801 800 801 720 801C640 801 560 801 480 801C400 801 320 801 240 801C160 801 80 801 40 801L0 801Z" fill="#a7c7e7" stroke-linecap="round" stroke-linejoin="miter"></path></svg>